<svg version="1.1" id="Layer_1" xmlns="http://www.w3.org/2000/svg" xmlns:xlink="http://www.w3.org/1999/xlink" x="0px" y="0px"
	 width="100%" viewBox="0 0 324 252" enable-background="new 0 0 324 252" xml:space="preserve">
<path fill="#FEFFFF" opacity="1.000000" stroke="none" 
	d="
M193.000000,253.000000 
	C128.666687,253.000000 64.833374,253.000000 1.000043,253.000000 
	C1.000029,169.000046 1.000029,85.000092 1.000014,1.000099 
	C108.999931,1.000066 216.999863,1.000066 324.999817,1.000033 
	C324.999878,84.999901 324.999878,168.999802 324.999939,252.999847 
	C281.166656,253.000000 237.333328,253.000000 193.000000,253.000000 
M259.932709,188.987640 
	C262.262726,188.988403 264.611542,189.177475 266.918518,188.947296 
	C270.702118,188.569763 272.320923,189.714722 272.090210,193.871979 
	C271.740295,200.176880 271.947418,206.516327 272.041138,212.839294 
	C272.061218,214.193344 272.607880,215.539597 272.911957,216.889435 
	C273.448578,216.854614 273.985199,216.819778 274.521820,216.784958 
	C274.684479,215.265625 274.974762,213.747345 274.987518,212.226761 
	C275.040558,205.902863 274.829315,199.569824 275.124573,193.259293 
	C275.208771,191.460052 277.067322,189.800369 277.421387,187.944855 
	C278.060272,184.597076 279.557892,178.946991 278.266846,178.138428 
	C273.529297,175.171280 275.195618,171.159439 275.100189,167.514832 
	C275.001770,163.757767 273.931427,159.827637 278.164246,156.770126 
	C280.827209,154.846603 278.922668,146.202225 276.290283,146.187607 
	C270.529755,146.155670 264.766052,146.695969 258.065887,147.000183 
	C247.292236,146.999710 236.518173,147.048172 225.745346,146.953491 
	C223.815247,146.936523 221.890350,146.328003 219.967484,145.096420 
	C220.815033,137.719803 221.560593,130.329514 222.547028,122.971512 
	C223.175018,118.287086 224.160324,113.650558 225.925949,108.998749 
	C242.225021,108.999466 258.524231,109.029808 274.822998,108.957451 
	C276.550720,108.949783 278.275757,108.339882 280.795105,107.823494 
	C281.196259,106.656013 281.945190,105.489288 281.947784,104.320923 
	C282.012543,74.855652 281.960754,45.390083 282.055481,15.924969 
	C282.065430,12.828485 280.994263,11.623725 278.009857,11.183176 
	C279.329498,9.613759 280.649139,8.044342 282.059753,6.366719 
	C281.442810,6.276599 280.520264,6.024475 279.597565,6.023959 
	C242.137939,6.003036 204.678238,6.038160 167.218826,5.945353 
	C163.942612,5.937236 162.904419,6.985925 162.942856,10.241721 
	C163.092209,22.892986 163.000046,35.547058 163.005127,48.200089 
	C163.007843,54.943024 163.014618,54.943020 169.999481,55.841785 
	C169.999039,57.185444 169.998596,58.529099 169.094727,59.929359 
	C161.818970,58.914295 155.838669,61.971233 149.846039,65.329399 
	C147.391998,62.436619 145.376938,58.937302 142.392532,56.777279 
	C136.171539,52.274700 130.544159,47.959232 133.871399,39.027294 
	C134.141220,38.302956 133.931137,37.370274 133.840652,36.545757 
	C132.636963,25.577532 121.799355,20.233603 112.713509,26.099268 
	C112.035736,26.536825 111.253807,27.022324 110.488785,27.082073 
	C104.779404,27.527973 100.795898,30.029387 99.789040,36.799221 
	C91.276062,27.908222 81.618370,22.816196 70.008698,20.974096 
	C70.233330,16.997671 67.571930,16.974182 64.713326,16.983330 
	C51.769211,17.024754 38.821575,17.165634 25.882557,16.905443 
	C21.782866,16.823002 20.934700,18.262983 20.908735,22.048260 
	C20.830469,33.458004 20.267073,44.863586 20.054066,56.273800 
	C19.996042,59.381878 20.068783,62.631882 20.945656,65.557770 
	C21.369856,66.973213 23.794340,67.789185 25.672274,69.561989 
	C28.712683,88.877785 42.500198,102.846359 61.794426,105.500237 
	C70.654289,106.718887 79.757774,107.879242 87.398911,101.034813 
	C88.321625,100.208305 90.143600,99.672630 91.316315,99.957893 
	C97.410469,101.440254 100.450081,105.523781 100.268578,112.589569 
	C99.208031,130.064453 98.147484,147.539322 96.143089,165.005966 
	C91.594063,165.005966 87.045044,165.005966 82.977341,165.005966 
	C82.977341,159.130066 83.162163,154.157242 82.919930,149.205322 
	C82.719528,145.108658 81.102402,142.460800 76.080299,142.896713 
	C70.794510,143.355515 65.437958,142.988647 60.112385,143.002365 
	C54.409603,143.017075 53.238152,144.073013 53.035244,149.999527 
	C52.871517,154.781540 53.002064,159.573624 53.002064,165.004135 
	C51.766293,165.004135 50.154984,165.004059 48.543671,165.004150 
	C38.890999,165.004639 29.237911,165.057083 19.585855,164.980011 
	C15.744042,164.949326 13.857084,166.190933 13.920133,170.491745 
	C14.125029,184.468475 14.083758,198.451019 13.933857,212.429153 
	C13.897706,215.800171 14.749246,217.331955 18.385756,217.060577 
	C22.026859,216.788864 25.705843,217.064484 29.364256,216.960602 
	C30.448935,216.929779 32.364243,216.601547 32.465309,216.113007 
	C33.346203,211.855057 36.610672,213.043976 39.202789,213.027176 
	C60.334053,212.890106 81.465797,212.827118 102.892281,213.382019 
	C103.233086,215.248138 103.573891,217.114258 102.988319,218.995178 
	C97.551201,219.006577 92.109665,219.157806 86.678314,218.986374 
	C82.102417,218.841949 80.118065,220.886230 81.070572,225.256912 
	C81.721268,228.242767 83.008125,231.089966 83.073647,233.998703 
	C65.036728,235.012268 46.992165,235.911926 28.968468,237.122406 
	C24.657455,237.411926 20.415989,238.736954 16.142536,239.585739 
	C16.179361,240.412598 16.216187,241.239456 16.253012,242.066315 
	C21.643875,243.037308 27.003677,244.587769 32.430996,244.878723 
	C55.621853,246.121872 78.831940,247.009842 102.036514,247.991898 
	C111.071831,248.374298 120.113022,248.984650 129.148178,248.930405 
	C150.684158,248.801117 172.221558,248.481140 193.751923,247.967377 
	C213.503311,247.496048 233.256668,246.882690 252.988708,245.914963 
	C263.547302,245.397125 274.067444,244.044403 284.592255,242.947006 
	C286.041504,242.795883 287.417450,241.941711 290.086548,240.940857 
	C287.776550,239.869888 286.845642,239.136063 285.843018,239.019501 
	C273.860931,237.626602 261.894257,235.958023 249.870773,235.105438 
	C238.281952,234.283646 226.625305,234.463654 215.012009,233.915924 
	C211.307907,233.741211 207.647202,232.646561 204.260910,231.336456 
	C207.881119,225.835266 209.197006,219.645844 210.046234,213.218140 
	C211.160400,204.785034 212.663162,196.403244 214.936371,188.001083 
	C226.767746,188.001633 238.599426,188.048706 250.430344,187.976212 
	C254.301620,187.952484 256.256470,189.234116 256.070587,193.524918 
	C255.796753,199.845322 255.915939,206.188446 256.067139,212.517151 
	C256.101013,213.935440 256.960022,215.334015 257.439178,216.741669 
	C257.960266,216.609726 258.481354,216.477768 259.002441,216.345825 
	C259.002441,207.224503 259.002441,198.103195 259.932709,188.987640 
M49.425991,131.007614 
	C52.074234,131.007614 54.722477,131.007614 57.370720,131.007614 
	C57.339981,130.558029 57.309242,130.108429 57.278503,129.658844 
	C50.411865,129.658844 43.545227,129.658844 36.678589,129.658844 
	C36.681515,130.108490 36.684441,130.558151 36.687366,131.007797 
	C40.609249,131.007797 44.531128,131.007797 49.425991,131.007614 
z"/>
<path fill="#D9E0FA" opacity="1.000000" stroke="none" 
	d="
M84.010567,233.999161 
	C83.008125,231.089966 81.721268,228.242767 81.070572,225.256912 
	C80.118065,220.886230 82.102417,218.841949 86.678314,218.986374 
	C92.109665,219.157806 97.551201,219.006577 103.773300,219.217438 
	C107.266220,219.608566 109.974167,219.777420 113.167313,219.949722 
	C123.532730,220.036514 123.532730,220.036514 124.148773,212.641357 
	C125.533592,202.330017 126.754013,192.387405 128.214813,182.103348 
	C129.537140,169.431198 130.619080,157.100479 132.022125,144.848114 
	C132.563385,144.935043 132.783569,144.943649 133.255707,144.929474 
	C133.628815,144.608871 133.749969,144.311035 134.003418,143.646729 
	C134.738464,139.696548 135.341232,136.112808 135.950195,132.059113 
	C137.293533,121.670746 138.630676,111.752350 140.072433,101.453514 
	C142.145645,88.981697 141.531372,76.156578 150.153305,65.955276 
	C155.838669,61.971233 161.818970,58.914295 170.014328,59.938171 
	C180.946762,59.938171 190.959579,59.929359 201.419662,59.945881 
	C204.251160,59.956078 206.635406,59.940933 209.486786,59.941818 
	C219.297913,59.946568 228.641937,59.935284 238.431244,59.946526 
	C241.252335,59.955956 243.628128,59.942856 246.466431,59.946690 
	C249.591965,59.972424 252.255676,59.946045 254.917923,59.996475 
	C263.684753,60.162544 271.497742,68.827560 271.051514,77.577789 
	C270.918793,80.180267 270.006653,81.086304 267.471191,81.029129 
	C262.647217,80.920357 257.818512,81.020744 252.555634,81.022881 
	C250.083542,81.024643 248.047607,81.037796 245.550400,81.037186 
	C241.390503,81.026772 237.691879,81.030121 233.560425,81.022514 
	C231.551422,81.114754 229.975281,81.217949 228.254761,81.330605 
	C227.799667,85.876358 227.393219,89.936310 226.700363,94.283363 
	C225.937775,99.377831 225.461594,104.185188 224.985397,108.992554 
	C224.160324,113.650558 223.175018,118.287086 222.547028,122.971512 
	C221.560593,130.329514 220.815033,137.719803 219.688110,145.824310 
	C218.924805,150.360870 218.440903,154.169525 217.675934,158.255646 
	C216.612518,164.683838 215.830170,170.834564 215.031708,177.412109 
	C214.676636,181.225739 214.337708,184.612564 213.998779,187.999390 
	C212.663162,196.403244 211.160400,204.785034 210.046234,213.218140 
	C209.197006,219.645844 207.881119,225.835266 203.817841,231.807709 
	C197.425858,238.943115 189.984283,241.203262 181.112305,241.097229 
	C155.498459,240.791107 129.876343,240.799545 104.262421,241.102936 
	C96.414330,241.195908 89.398384,240.275970 84.010567,233.999161 
M164.676300,110.954933 
	C165.130676,110.315666 165.585052,109.676407 166.778793,108.955566 
	C171.148087,106.332420 170.518982,102.126549 169.488007,98.375954 
	C168.464722,94.653297 165.538406,92.339813 161.424088,92.002632 
	C152.808990,91.296608 145.260605,100.653000 148.574432,108.548950 
	C149.540482,110.850761 152.575439,113.188049 155.047348,113.720573 
	C157.998703,114.356384 162.148834,115.486977 164.676300,110.954933 
M156.735321,168.013916 
	C162.403381,165.499985 164.279282,157.296860 160.226944,152.745453 
	C156.718628,148.805115 150.683548,147.852341 146.198456,150.530777 
	C141.425537,153.381073 138.048843,161.351410 140.598785,165.530350 
	C142.039413,167.891312 144.960068,170.078705 147.621094,170.764236 
	C150.388062,171.477036 154.367218,172.292450 156.001587,167.998489 
	C156.001587,167.998489 155.977341,167.984268 156.735321,168.013916 
M191.499359,79.028854 
	C178.715775,79.028854 165.932205,79.028854 152.188171,79.028854 
	C155.680939,83.808464 208.160767,84.233131 211.655731,79.388138 
	C205.270126,79.268387 198.884537,79.148643 191.499359,79.028854 
M173.085373,166.936920 
	C182.046127,166.942703 191.008789,167.039352 199.965546,166.853012 
	C201.259506,166.826096 202.525162,165.439835 203.803925,164.682617 
	C202.808914,163.819397 201.828598,162.227097 200.816605,162.206665 
	C191.528214,162.019379 182.233582,162.054337 172.943192,162.190109 
	C172.038239,162.203339 170.372299,163.397354 170.418808,163.922958 
	C170.509140,164.943466 171.565598,165.878464 173.085373,166.936920 
M185.686905,102.994331 
	C194.335037,102.992828 202.984924,103.076920 211.629425,102.899002 
	C212.949707,102.871819 214.245041,101.633133 215.551910,100.954796 
	C214.219559,100.312157 212.897049,99.137726 211.553284,99.112854 
	C202.575592,98.946678 193.591034,98.916275 184.614365,99.107544 
	C182.555923,99.151398 180.519577,100.231857 178.473053,100.835258 
	C180.566116,101.554947 182.659164,102.274635 185.686905,102.994331 
M179.437592,105.482117 
	C176.372543,108.971062 178.725204,109.840126 181.764313,109.903503 
	C188.393692,110.041763 195.033203,110.090103 201.655884,109.839500 
	C203.073746,109.785843 204.437683,108.307465 205.826462,107.485413 
	C204.426926,106.681824 203.046097,105.225533 201.624680,105.184769 
	C194.503494,104.980537 187.371674,105.146996 179.437592,105.482117 
M161.971741,139.501663 
	C166.024536,136.105698 166.676361,131.586487 165.703506,126.825424 
	C164.847214,122.634880 161.229340,120.675323 157.595398,120.584450 
	C154.558182,120.508499 151.225906,121.918060 148.468323,123.462563 
	C144.617432,125.619415 142.628326,133.396332 144.336227,137.385452 
	C145.883926,141.000412 150.936951,143.792313 155.145325,142.872177 
	C157.340210,142.392303 159.335922,141.001389 161.971741,139.501663 
M183.551727,134.022141 
	C181.393631,134.025650 179.209183,133.832458 177.088623,134.116379 
	C176.041138,134.256638 175.111481,135.277023 174.128510,135.899185 
	C175.030212,136.592712 175.921097,137.871536 176.835281,137.888412 
	C185.132706,138.041519 193.436127,138.059418 201.732300,137.872833 
	C202.876617,137.847107 203.990967,136.488739 205.119186,135.747330 
	C204.957840,135.172134 204.796478,134.596924 204.635132,134.021713 
	C197.934860,134.021713 191.234589,134.021713 183.551727,134.022141 
M198.744659,131.957825 
	C202.077805,131.949966 205.431381,132.147690 208.732758,131.819931 
	C209.850021,131.709000 210.835312,130.268814 211.880905,129.436081 
	C210.954559,128.658920 210.060287,127.260475 209.096405,127.210716 
	C204.610092,126.979103 200.091064,126.931770 195.614441,127.250084 
	C194.362457,127.339111 193.215118,128.899887 192.019760,129.785538 
	C192.130249,130.235138 192.240723,130.684738 192.351212,131.134354 
	C194.177567,131.408615 196.003922,131.682877 198.744659,131.957825 
M178.596390,160.016647 
	C182.731140,160.012436 186.872284,160.130173 190.995972,159.914536 
	C191.973328,159.863419 192.892197,158.693710 193.837967,158.038544 
	C192.914963,157.368164 192.017029,156.163315 191.064651,156.118607 
	C186.608749,155.909454 182.117477,155.766541 177.680923,156.123367 
	C175.466278,156.301498 172.023682,154.086731 171.415390,158.294678 
	C171.376526,158.563522 175.464325,159.428909 178.596390,160.016647 
M186.047455,131.953812 
	C187.274902,130.994965 188.502335,130.036102 189.729782,129.077240 
	C188.381882,128.407104 187.088196,127.354515 185.673721,127.153984 
	C183.395248,126.830956 180.992035,126.793922 178.727600,127.163490 
	C177.075714,127.433083 175.562363,128.551392 173.987244,129.291367 
	C174.110855,130.033218 174.234467,130.775085 174.358093,131.516953 
	C177.958145,131.663651 181.558212,131.810349 186.047455,131.953812 
z"/>
<path fill="#ECEFFD" opacity="1.000000" stroke="none" 
	d="
M169.999390,55.031128 
	C163.014618,54.943020 163.007843,54.943024 163.005127,48.200089 
	C163.000046,35.547058 163.092209,22.892986 162.942856,10.241721 
	C162.904419,6.985925 163.942612,5.937236 167.218826,5.945353 
	C204.678238,6.038160 242.137939,6.003036 279.597565,6.023959 
	C280.520264,6.024475 281.442810,6.276599 282.059753,6.366719 
	C280.649139,8.044342 279.329498,9.613759 278.006378,12.056040 
	C278.001923,26.952398 278.000946,40.975895 277.531342,54.999840 
	C268.148254,54.999931 259.231995,54.910316 250.321136,55.088722 
	C248.868210,55.117813 247.438965,56.331165 245.631989,56.933846 
	C242.842453,56.248997 240.419708,55.627453 237.528488,55.003544 
	C230.588623,54.999641 224.114975,54.897717 217.646835,55.042305 
	C214.759460,55.106850 211.883163,55.666916 208.605347,55.953979 
	C205.803864,55.605930 203.398880,55.305992 200.525620,55.004234 
	C190.038025,55.011986 180.018707,55.021557 169.999390,55.031128 
z"/>
<path fill="#EFF3FD" opacity="1.000000" stroke="none" 
	d="
M102.597382,212.741577 
	C81.465797,212.827118 60.334053,212.890106 39.202789,213.027176 
	C36.610672,213.043976 33.346203,211.855057 32.465309,216.113007 
	C32.364243,216.601547 30.448935,216.929779 29.364256,216.960602 
	C25.705843,217.064484 22.026859,216.788864 18.385756,217.060577 
	C14.749246,217.331955 13.897706,215.800171 13.933857,212.429153 
	C14.083758,198.451019 14.125029,184.468475 13.920133,170.491745 
	C13.857084,166.190933 15.744042,164.949326 19.585855,164.980011 
	C29.237911,165.057083 38.890999,165.004639 48.543671,165.004150 
	C50.154984,165.004059 51.766293,165.004135 53.002064,165.004135 
	C53.002064,159.573624 52.871517,154.781540 53.035244,149.999527 
	C53.238152,144.073013 54.409603,143.017075 60.112385,143.002365 
	C65.437958,142.988647 70.794510,143.355515 76.080299,142.896713 
	C81.102402,142.460800 82.719528,145.108658 82.919930,149.205322 
	C83.162163,154.157242 82.977341,159.130066 82.977341,165.005966 
	C87.045044,165.005966 91.594063,165.005966 96.683350,165.445190 
	C99.014870,181.503464 100.806129,197.122513 102.597382,212.741577 
z"/>
<path fill="#5489F1" opacity="1.000000" stroke="none" 
	d="
M135.944000,132.529083 
	C135.341232,136.112808 134.738464,139.696548 133.812363,143.755096 
	C133.251709,144.419907 133.089935,144.660690 133.003738,144.952240 
	C132.783569,144.943649 132.563385,144.935043 131.804260,144.659851 
	C125.576347,138.249191 119.887405,132.105133 114.198471,125.961060 
	C113.841484,126.212677 113.484505,126.464294 113.127518,126.715912 
	C113.396599,131.787964 113.665688,136.860031 113.536255,141.938248 
	C112.422272,140.901855 111.227806,139.926178 111.071327,138.805557 
	C110.236015,132.823715 109.623260,126.809433 109.007553,120.798798 
	C108.597511,116.795967 104.763496,112.660599 100.661156,111.951912 
	C100.450081,105.523781 97.410469,101.440254 91.316315,99.957893 
	C90.143600,99.672630 88.321625,100.208305 87.398911,101.034813 
	C79.757774,107.879242 70.654289,106.718887 61.794426,105.500237 
	C42.500198,102.846359 28.712683,88.877785 25.511929,68.774902 
	C25.631453,63.334118 25.911320,58.680424 26.373190,53.718842 
	C28.050182,49.635033 29.545168,45.859119 31.318897,41.896603 
	C34.102203,38.549015 36.606762,35.388031 39.437111,32.108784 
	C45.180866,29.034054 50.598839,26.077587 56.433182,23.120005 
	C61.239681,22.667763 65.629814,22.216633 70.019943,21.765505 
	C81.618370,22.816196 91.276062,27.908222 99.789040,36.799221 
	C100.795898,30.029387 104.779404,27.527973 110.488785,27.082073 
	C111.253807,27.022324 112.035736,26.536825 112.713509,26.099268 
	C121.799355,20.233603 132.636963,25.577532 133.840652,36.545757 
	C133.931137,37.370274 134.141220,38.302956 133.871399,39.027294 
	C130.544159,47.959232 136.171539,52.274700 142.392532,56.777279 
	C145.376938,58.937302 147.391998,62.436619 149.999664,65.642334 
	C141.531372,76.156578 142.145645,88.981697 139.682251,101.520248 
	C135.795761,101.987549 132.404037,102.007690 128.881943,101.712067 
	C128.509598,100.308098 128.267639,99.219887 128.313965,97.942261 
	C134.221146,95.024284 137.181274,90.946495 136.090942,84.333984 
	C135.370499,79.964600 135.231339,75.499367 134.887985,70.686073 
	C135.000031,68.105919 135.546875,65.789886 135.020081,63.751286 
	C133.428558,57.592297 128.508408,56.695435 122.716934,56.826416 
	C121.587097,56.627808 120.826050,56.536549 119.992706,56.089096 
	C115.768158,48.496098 123.743851,46.523438 125.933167,43.082809 
	C123.827850,40.464581 121.539230,38.765354 120.898926,36.582603 
	C119.578369,32.080856 116.255295,30.610291 112.439072,29.054752 
	C111.538574,30.313171 110.721024,31.335516 110.032051,32.438194 
	C105.884811,39.075768 106.480446,43.806149 111.704132,49.591640 
	C112.535789,50.512745 112.829193,53.479328 112.268761,53.854923 
	C107.064980,57.342480 109.579712,62.483093 109.052338,67.371506 
	C108.225372,76.605133 104.890640,84.340439 99.179390,90.730301 
	C99.848633,92.696800 100.416412,94.365150 101.004692,96.326340 
	C101.343056,97.076454 101.660919,97.533722 101.850105,98.329926 
	C100.713440,101.484505 101.787163,102.917580 104.689751,103.117859 
	C106.450348,103.239334 108.212418,103.339310 109.986557,103.786301 
	C116.559059,110.758888 123.118828,117.394112 129.778061,124.381622 
	C131.899689,127.332291 133.921844,129.930695 135.944000,132.529083 
M101.681442,57.041515 
	C98.081085,40.868149 84.924126,29.424091 69.268517,28.848429 
	C51.904709,28.209955 38.261269,37.994865 33.434547,54.548130 
	C28.813961,70.394455 36.575901,87.949532 51.464790,95.326935 
	C66.515808,102.784683 84.378326,98.876488 94.652962,85.758286 
	C101.813370,77.622597 103.031563,68.012177 101.681442,57.041515 
z"/>
<path fill="#F6F7FE" opacity="1.000000" stroke="none" 
	d="
M83.542107,233.998932 
	C89.398384,240.275970 96.414330,241.195908 104.262421,241.102936 
	C129.876343,240.799545 155.498459,240.791107 181.112305,241.097229 
	C189.984283,241.203262 197.425858,238.943115 203.670715,232.125916 
	C207.647202,232.646561 211.307907,233.741211 215.012009,233.915924 
	C226.625305,234.463654 238.281952,234.283646 249.870773,235.105438 
	C261.894257,235.958023 273.860931,237.626602 285.843018,239.019501 
	C286.845642,239.136063 287.776550,239.869888 290.086548,240.940857 
	C287.417450,241.941711 286.041504,242.795883 284.592255,242.947006 
	C274.067444,244.044403 263.547302,245.397125 252.988708,245.914963 
	C233.256668,246.882690 213.503311,247.496048 193.751923,247.967377 
	C172.221558,248.481140 150.684158,248.801117 129.148178,248.930405 
	C120.113022,248.984650 111.071831,248.374298 102.036514,247.991898 
	C78.831940,247.009842 55.621853,246.121872 32.430996,244.878723 
	C27.003677,244.587769 21.643875,243.037308 16.253012,242.066315 
	C16.216187,241.239456 16.179361,240.412598 16.142536,239.585739 
	C20.415989,238.736954 24.657455,237.411926 28.968468,237.122406 
	C46.992165,235.911926 65.036728,235.012268 83.542107,233.998932 
z"/>
<path fill="#F8F9FE" opacity="1.000000" stroke="none" 
	d="
M245.998779,56.997154 
	C247.438965,56.331165 248.868210,55.117813 250.321136,55.088722 
	C259.231995,54.910316 268.148254,54.999931 277.584320,55.415359 
	C278.403961,57.949810 278.945679,60.067574 278.959839,62.188850 
	C279.041962,74.512108 278.937134,86.836754 279.045715,99.159599 
	C279.071686,102.112106 279.668030,105.059586 280.002045,108.009369 
	C278.275757,108.339882 276.550720,108.949783 274.822998,108.957451 
	C258.524231,109.029808 242.225021,108.999466 225.455673,108.995651 
	C225.461594,104.185188 225.937775,99.377831 227.050339,94.340607 
	C229.164749,96.604408 230.437973,99.258179 232.208603,101.523117 
	C233.073410,102.629349 234.864670,103.011330 236.236588,103.721123 
	C236.823593,102.311981 237.682999,100.952568 237.950867,99.485161 
	C239.167450,92.820946 236.660828,86.897781 233.993271,81.033470 
	C237.691879,81.030121 241.390503,81.026772 245.546844,81.500031 
	C246.003464,86.304932 246.001373,90.633232 246.001419,94.961533 
	C246.001511,103.754189 247.654099,105.329338 256.527771,104.997665 
	C262.051666,104.791199 262.936188,103.235374 260.617432,98.184990 
	C258.007080,92.499527 255.527985,86.753792 252.991791,81.034271 
	C257.818512,81.020744 262.647217,80.920357 267.471191,81.029129 
	C270.006653,81.086304 270.918793,80.180267 271.051514,77.577789 
	C271.497742,68.827560 263.684753,60.162544 254.917923,59.996475 
	C252.255676,59.946045 249.591965,59.972424 246.465363,59.581623 
	C246.000778,58.465466 245.999786,57.731312 245.998779,56.997154 
z"/>
<path fill="#6591F1" opacity="1.000000" stroke="none" 
	d="
M100.464867,112.270737 
	C104.763496,112.660599 108.597511,116.795967 109.007553,120.798798 
	C109.623260,126.809433 110.236015,132.823715 111.071327,138.805557 
	C111.227806,139.926178 112.422272,140.901855 113.557159,142.183105 
	C113.976578,142.421799 113.976273,142.911774 113.944809,143.347214 
	C110.939362,166.837173 112.659409,189.936493 113.165550,213.452026 
	C112.946388,215.901443 112.814255,217.923859 112.682114,219.946289 
	C109.974167,219.777420 107.266220,219.608566 104.236481,219.210037 
	C103.573891,217.114258 103.233086,215.248138 102.744827,213.061798 
	C100.806129,197.122513 99.014870,181.503464 97.155273,165.449310 
	C98.147484,147.539322 99.208031,130.064453 100.464867,112.270737 
z"/>
<path fill="#F6F7FE" opacity="1.000000" stroke="none" 
	d="
M217.956985,157.978210 
	C218.440903,154.169525 218.924805,150.360870 219.685883,146.272400 
	C221.890350,146.328003 223.815247,146.936523 225.745346,146.953491 
	C236.518173,147.048172 247.292236,146.999710 258.534546,147.448044 
	C259.336548,151.260391 259.669922,154.624878 259.836243,158.373749 
	C259.446136,164.839767 259.223053,170.921417 259.001099,177.463409 
	C259.002289,181.609802 259.002350,185.295837 259.002441,188.981873 
	C259.002441,198.103195 259.002441,207.224503 259.002441,216.345825 
	C258.481354,216.477768 257.960266,216.609726 257.439178,216.741669 
	C256.960022,215.334015 256.101013,213.935440 256.067139,212.517151 
	C255.915939,206.188446 255.796753,199.845322 256.070587,193.524918 
	C256.256470,189.234116 254.301620,187.952484 250.430344,187.976212 
	C238.599426,188.048706 226.767746,188.001633 214.467575,188.000244 
	C214.337708,184.612564 214.676636,181.225739 215.494995,177.416870 
	C227.613312,176.996368 239.254105,176.879486 250.890060,177.065063 
	C254.847153,177.128189 256.338074,175.661575 256.038818,171.799332 
	C255.833939,169.154892 255.762451,166.455475 256.053192,163.827301 
	C256.543365,159.395950 255.173279,157.718994 250.375488,157.882401 
	C239.580750,158.250061 228.764496,157.985474 217.956985,157.978210 
z"/>
<path fill="#E8EDFC" opacity="1.000000" stroke="none" 
	d="
M259.467590,188.984756 
	C259.002350,185.295837 259.002289,181.609802 259.466492,177.462448 
	C261.582977,177.000549 263.235199,176.999939 264.887421,176.999405 
	C271.997345,176.997101 271.997345,176.997101 271.998779,169.763962 
	C272.001129,158.006912 272.001129,158.006912 260.003296,157.989365 
	C259.669922,154.624878 259.336548,151.260391 259.003418,147.449219 
	C264.766052,146.695969 270.529755,146.155670 276.290283,146.187607 
	C278.922668,146.202225 280.827209,154.846603 278.164246,156.770126 
	C273.931427,159.827637 275.001770,163.757767 275.100189,167.514832 
	C275.195618,171.159439 273.529297,175.171280 278.266846,178.138428 
	C279.557892,178.946991 278.060272,184.597076 277.421387,187.944855 
	C277.067322,189.800369 275.208771,191.460052 275.124573,193.259293 
	C274.829315,199.569824 275.040558,205.902863 274.987518,212.226761 
	C274.974762,213.747345 274.684479,215.265625 274.521820,216.784958 
	C273.985199,216.819778 273.448578,216.854614 272.911957,216.889435 
	C272.607880,215.539597 272.061218,214.193344 272.041138,212.839294 
	C271.947418,206.516327 271.740295,200.176880 272.090210,193.871979 
	C272.320923,189.714722 270.702118,188.569763 266.918518,188.947296 
	C264.611542,189.177475 262.262726,188.988403 259.467590,188.984756 
z"/>
<path fill="#F4F6FE" opacity="1.000000" stroke="none" 
	d="
M70.014320,21.369801 
	C65.629814,22.216633 61.239681,22.667763 56.348385,22.711630 
	C55.201492,21.879917 54.559296,21.092194 53.909496,21.085867 
	C45.093044,21.000036 36.268898,20.857250 27.466042,21.211082 
	C26.258015,21.259642 24.216463,23.874075 24.158321,25.362944 
	C23.833967,33.668774 23.910427,41.995876 24.098650,50.310074 
	C24.127041,51.564106 25.461094,52.788586 26.191185,54.026733 
	C25.911320,58.680424 25.631453,63.334118 25.332375,68.432190 
	C23.794340,67.789185 21.369856,66.973213 20.945656,65.557770 
	C20.068783,62.631882 19.996042,59.381878 20.054066,56.273800 
	C20.267073,44.863586 20.830469,33.458004 20.908735,22.048260 
	C20.934700,18.262983 21.782866,16.823002 25.882557,16.905443 
	C38.821575,17.165634 51.769211,17.024754 64.713326,16.983330 
	C67.571930,16.974182 70.233330,16.997671 70.014320,21.369801 
z"/>
<path fill="#F3F5FD" opacity="1.000000" stroke="none" 
	d="
M280.398560,107.916435 
	C279.668030,105.059586 279.071686,102.112106 279.045715,99.159599 
	C278.937134,86.836754 279.041962,74.512108 278.959839,62.188850 
	C278.945679,60.067574 278.403961,57.949810 278.052979,55.414906 
	C278.000946,40.975895 278.001923,26.952398 278.006348,12.459019 
	C280.994263,11.623725 282.065430,12.828485 282.055481,15.924969 
	C281.960754,45.390083 282.012543,74.855652 281.947784,104.320923 
	C281.945190,105.489288 281.196259,106.656013 280.398560,107.916435 
z"/>
<path fill="#FEFEFF" opacity="1.000000" stroke="none" 
	d="
M169.999435,55.436455 
	C180.018707,55.021557 190.038025,55.011986 200.527740,55.415245 
	C200.989563,57.192230 200.980988,58.556389 200.972412,59.920544 
	C190.959579,59.929359 180.946762,59.938171 170.466049,59.909874 
	C169.998596,58.529099 169.999039,57.185444 169.999435,55.436455 
z"/>
<path fill="#E8EDFC" opacity="1.000000" stroke="none" 
	d="
M48.939499,131.007706 
	C44.531128,131.007797 40.609249,131.007797 36.687366,131.007797 
	C36.684441,130.558151 36.681515,130.108490 36.678589,129.658844 
	C43.545227,129.658844 50.411865,129.658844 57.278503,129.658844 
	C57.309242,130.108429 57.339981,130.558029 57.370720,131.007614 
	C54.722477,131.007614 52.074234,131.007614 48.939499,131.007706 
z"/>
<path fill="#FEFFFF" opacity="1.000000" stroke="none" 
	d="
M217.675934,158.255646 
	C228.764496,157.985474 239.580750,158.250061 250.375488,157.882401 
	C255.173279,157.718994 256.543365,159.395950 256.053192,163.827301 
	C255.762451,166.455475 255.833939,169.154892 256.038818,171.799332 
	C256.338074,175.661575 254.847153,177.128189 250.890060,177.065063 
	C239.254105,176.879486 227.613312,176.996368 215.511124,176.990082 
	C215.830170,170.834564 216.612518,164.683838 217.675934,158.255646 
z"/>
<path fill="#EEF1FD" opacity="1.000000" stroke="none" 
	d="
M113.252571,213.025055 
	C112.659409,189.936493 110.939362,166.837173 114.280960,143.520554 
	C115.131180,144.807907 115.770134,146.327621 116.071533,147.911560 
	C118.372108,160.001648 121.193375,171.902557 127.974434,182.444778 
	C126.754013,192.387405 125.533592,202.330017 123.695496,212.638336 
	C119.802750,213.011047 116.527657,213.018051 113.252571,213.025055 
z"/>
<path fill="#638FF1" opacity="1.000000" stroke="none" 
	d="
M128.214813,182.103348 
	C121.193375,171.902557 118.372108,160.001648 116.071533,147.911560 
	C115.770134,146.327621 115.131180,144.807907 114.312424,143.085114 
	C113.976273,142.911774 113.976578,142.421799 113.955673,142.176941 
	C113.665688,136.860031 113.396599,131.787964 113.127518,126.715912 
	C113.484505,126.464294 113.841484,126.212677 114.198471,125.961060 
	C119.887405,132.105133 125.576347,138.249191 131.483154,144.581512 
	C130.619080,157.100479 129.537140,169.431198 128.214813,182.103348 
z"/>
<path fill="#FEFEFF" opacity="1.000000" stroke="none" 
	d="
M252.555634,81.022873 
	C255.527985,86.753792 258.007080,92.499527 260.617432,98.184990 
	C262.936188,103.235374 262.051666,104.791199 256.527771,104.997665 
	C247.654099,105.329338 246.001511,103.754189 246.001419,94.961533 
	C246.001373,90.633232 246.003464,86.304932 246.008148,81.513794 
	C248.047607,81.037796 250.083542,81.024643 252.555634,81.022873 
z"/>
<path fill="#A2B8F5" opacity="1.000000" stroke="none" 
	d="
M191.999146,79.028870 
	C198.884537,79.148643 205.270126,79.268387 211.655731,79.388138 
	C208.160767,84.233131 155.680939,83.808464 152.188171,79.028854 
	C165.932205,79.028854 178.715775,79.028854 191.999146,79.028870 
z"/>
<path fill="#FBFCFF" opacity="1.000000" stroke="none" 
	d="
M129.012329,102.027824 
	C132.404037,102.007690 135.795761,101.987549 139.577652,101.900681 
	C138.630676,111.752350 137.293533,121.670746 135.950195,132.059113 
	C133.921844,129.930695 131.899689,127.332291 129.895432,123.923035 
	C129.613007,116.084061 129.312668,109.055946 129.012329,102.027824 
z"/>
<path fill="#FEFEFF" opacity="1.000000" stroke="none" 
	d="
M233.560425,81.022514 
	C236.660828,86.897781 239.167450,92.820946 237.950867,99.485161 
	C237.682999,100.952568 236.823593,102.311981 236.236588,103.721123 
	C234.864670,103.011330 233.073410,102.629349 232.208603,101.523117 
	C230.437973,99.258179 229.164749,96.604408 227.336746,94.053497 
	C227.393219,89.936310 227.799667,85.876358 228.254761,81.330605 
	C229.975281,81.217949 231.551422,81.114754 233.560425,81.022514 
z"/>
<path fill="#A2B8F5" opacity="1.000000" stroke="none" 
	d="
M172.653564,166.892914 
	C171.565598,165.878464 170.509140,164.943466 170.418808,163.922958 
	C170.372299,163.397354 172.038239,162.203339 172.943192,162.190109 
	C182.233582,162.054337 191.528214,162.019379 200.816605,162.206665 
	C201.828598,162.227097 202.808914,163.819397 203.803925,164.682617 
	C202.525162,165.439835 201.259506,166.826096 199.965546,166.853012 
	C191.008789,167.039352 182.046127,166.942703 172.653564,166.892914 
z"/>
<path fill="#A0B5F5" opacity="1.000000" stroke="none" 
	d="
M185.219574,102.994324 
	C182.659164,102.274635 180.566116,101.554947 178.473053,100.835258 
	C180.519577,100.231857 182.555923,99.151398 184.614365,99.107544 
	C193.591034,98.916275 202.575592,98.946678 211.553284,99.112854 
	C212.897049,99.137726 214.219559,100.312157 215.551910,100.954788 
	C214.245041,101.633133 212.949707,102.871819 211.629425,102.899002 
	C202.984924,103.076920 194.335037,102.992828 185.219574,102.994324 
z"/>
<path fill="#FBFCFF" opacity="1.000000" stroke="none" 
	d="
M209.001831,56.002098 
	C211.883163,55.666916 214.759460,55.106850 217.646835,55.042305 
	C224.114975,54.897717 230.588623,54.999641 237.529449,55.414783 
	C237.994568,57.193596 237.990250,58.558796 237.985947,59.924000 
	C228.641937,59.935284 219.297913,59.946568 209.481522,59.551559 
	C209.006699,58.097549 209.004272,57.049824 209.001831,56.002098 
z"/>
<path fill="#A2B8F5" opacity="1.000000" stroke="none" 
	d="
M179.840591,105.332642 
	C187.371674,105.146996 194.503494,104.980537 201.624680,105.184769 
	C203.046097,105.225533 204.426926,106.681824 205.826462,107.485413 
	C204.437683,108.307465 203.073746,109.785843 201.655884,109.839500 
	C195.033203,110.090103 188.393692,110.041763 181.764313,109.903503 
	C178.725204,109.840126 176.372543,108.971062 179.840591,105.332642 
z"/>
<path fill="#B6C6F7" opacity="1.000000" stroke="none" 
	d="
M161.696671,139.761810 
	C159.335922,141.001389 157.340210,142.392303 155.145325,142.872177 
	C150.936951,143.792313 145.883926,141.000412 144.336227,137.385452 
	C142.628326,133.396332 144.617432,125.619415 148.468323,123.462563 
	C151.225906,121.918060 154.558182,120.508499 157.595398,120.584450 
	C161.229340,120.675323 164.847214,122.634880 165.703506,126.825424 
	C166.676361,131.586487 166.024536,136.105698 161.696671,139.761810 
M147.282623,137.657700 
	C152.801010,142.749771 157.118881,142.257553 162.335312,135.324219 
	C164.962723,132.208069 164.967285,128.475769 162.565689,125.821579 
	C160.869034,123.946487 157.366074,122.507805 154.874634,122.776482 
	C147.654709,123.555107 144.459229,129.845169 147.282623,137.657700 
z"/>
<path fill="#B6C6F7" opacity="1.000000" stroke="none" 
	d="
M155.984787,167.972015 
	C154.367218,172.292450 150.388062,171.477036 147.621094,170.764236 
	C144.960068,170.078705 142.039413,167.891312 140.598785,165.530350 
	C138.048843,161.351410 141.425537,153.381073 146.198456,150.530777 
	C150.683548,147.852341 156.718628,148.805115 160.226944,152.745453 
	C164.279282,157.296860 162.403381,165.499985 156.474991,167.720337 
	C156.802032,166.615112 157.389389,165.803482 158.175034,164.670700 
	C158.931717,162.512177 159.781723,160.707092 159.989273,158.830933 
	C160.455795,154.613617 157.787949,152.214386 154.187698,151.363312 
	C149.458878,150.245468 145.689407,152.567215 143.364014,156.537872 
	C141.780045,159.242523 140.120529,162.511871 143.847198,165.576416 
	C147.099213,171.540070 151.740768,168.569366 155.984787,167.972015 
z"/>
<path fill="#B6C6F7" opacity="1.000000" stroke="none" 
	d="
M164.036789,111.038734 
	C162.148834,115.486977 157.998703,114.356384 155.047348,113.720573 
	C152.575439,113.188049 149.540482,110.850761 148.574432,108.548950 
	C145.260605,100.653000 152.808990,91.296608 161.424088,92.002632 
	C165.538406,92.339813 168.464722,94.653297 169.488007,98.375954 
	C170.518982,102.126549 171.148087,106.332420 166.380951,108.972237 
	C165.983109,108.988907 165.925537,108.942200 165.939056,108.702057 
	C165.952560,108.461914 165.942825,107.979614 166.139984,107.660049 
	C169.171341,102.326813 168.377686,97.562782 164.304840,95.141273 
	C160.097473,92.639786 153.975769,94.769676 151.108505,99.732635 
	C148.602859,104.069611 149.780289,108.733070 154.191589,111.297318 
	C157.592804,111.345612 160.764984,111.133499 163.961731,110.951004 
	C163.986298,110.980637 164.036789,111.038734 164.036789,111.038734 
z"/>
<path fill="#A0B5F5" opacity="1.000000" stroke="none" 
	d="
M184.043030,134.021927 
	C191.234589,134.021713 197.934860,134.021713 204.635132,134.021713 
	C204.796478,134.596924 204.957840,135.172134 205.119186,135.747330 
	C203.990967,136.488739 202.876617,137.847107 201.732300,137.872833 
	C193.436127,138.059418 185.132706,138.041519 176.835281,137.888412 
	C175.921097,137.871536 175.030212,136.592712 174.128510,135.899185 
	C175.111481,135.277023 176.041138,134.256638 177.088623,134.116379 
	C179.209183,133.832458 181.393631,134.025650 184.043030,134.021927 
z"/>
<path fill="#A2B8F5" opacity="1.000000" stroke="none" 
	d="
M198.287476,131.957489 
	C196.003922,131.682877 194.177567,131.408615 192.351212,131.134354 
	C192.240723,130.684738 192.130249,130.235138 192.019760,129.785538 
	C193.215118,128.899887 194.362457,127.339111 195.614441,127.250084 
	C200.091064,126.931770 204.610092,126.979103 209.096405,127.210716 
	C210.060287,127.260475 210.954559,128.658920 211.880905,129.436081 
	C210.835312,130.268814 209.850021,131.709000 208.732758,131.819931 
	C205.431381,132.147690 202.077805,131.949966 198.287476,131.957489 
z"/>
<path fill="#A0B5F5" opacity="1.000000" stroke="none" 
	d="
M178.114380,160.016708 
	C175.464325,159.428909 171.376526,158.563522 171.415390,158.294678 
	C172.023682,154.086731 175.466278,156.301498 177.680923,156.123367 
	C182.117477,155.766541 186.608749,155.909454 191.064651,156.118607 
	C192.017029,156.163315 192.914963,157.368164 193.837967,158.038544 
	C192.892197,158.693710 191.973328,159.863419 190.995972,159.914536 
	C186.872284,160.130173 182.731140,160.012436 178.114380,160.016708 
z"/>
<path fill="#A2B8F5" opacity="1.000000" stroke="none" 
	d="
M185.602859,131.955429 
	C181.558212,131.810349 177.958145,131.663651 174.358093,131.516953 
	C174.234467,130.775085 174.110855,130.033218 173.987244,129.291367 
	C175.562363,128.551392 177.075714,127.433083 178.727600,127.163490 
	C180.992035,126.793922 183.395248,126.830956 185.673721,127.153984 
	C187.088196,127.354515 188.381882,128.407104 189.729782,129.077240 
	C188.502335,130.036102 187.274902,130.994965 185.602859,131.955429 
z"/>
<path fill="#FBFCFF" opacity="1.000000" stroke="none" 
	d="
M113.165550,213.452026 
	C116.527657,213.018051 119.802750,213.011047 123.531113,213.007050 
	C123.532730,220.036514 123.532730,220.036514 113.167320,219.949738 
	C112.814255,217.923859 112.946388,215.901443 113.165550,213.452026 
z"/>
<path fill="#F4F6FE" opacity="1.000000" stroke="none" 
	d="
M208.605347,55.953979 
	C209.004272,57.049824 209.006699,58.097549 209.014404,59.535534 
	C206.635406,59.940933 204.251160,59.956078 201.419662,59.945881 
	C200.980988,58.556389 200.989563,57.192230 200.996033,55.417065 
	C203.398880,55.305992 205.803864,55.605930 208.605347,55.953979 
z"/>
<path fill="#F6F7FE" opacity="1.000000" stroke="none" 
	d="
M238.431244,59.946526 
	C237.990250,58.558796 237.994568,57.193596 237.997925,55.417152 
	C240.419708,55.627453 242.842453,56.248997 245.632004,56.933846 
	C245.999786,57.731312 246.000778,58.465466 246.002869,59.564690 
	C243.628128,59.942856 241.252335,59.955956 238.431244,59.946526 
z"/>
<path fill="#B6C6F7" opacity="1.000000" stroke="none" 
	d="
M166.011261,109.013031 
	C165.585052,109.676407 165.130676,110.315666 164.356537,110.996834 
	C164.036789,111.038734 163.986298,110.980637 164.091873,110.695862 
	C164.773483,109.921455 165.349518,109.431831 165.925537,108.942200 
	C165.925537,108.942200 165.983109,108.988907 166.011261,109.013031 
z"/>
<path fill="#638FF1" opacity="1.000000" stroke="none" 
	d="
M133.255707,144.929474 
	C133.089935,144.660690 133.251709,144.419907 133.680084,144.121552 
	C133.749969,144.311035 133.628815,144.608871 133.255707,144.929474 
z"/>
<path fill="#EEF1FD" opacity="1.000000" stroke="none" 
	d="
M94.018288,86.016541 
	C84.378326,98.876488 66.515808,102.784683 51.464790,95.326935 
	C36.575901,87.949532 28.813961,70.394455 33.434547,54.548130 
	C38.261269,37.994865 51.904709,28.209955 69.268517,28.848429 
	C84.924126,29.424091 98.081085,40.868149 101.289528,57.447506 
	C96.746826,59.087929 93.731964,65.465851 95.026985,69.594421 
	C95.633080,71.526665 95.745529,73.730309 95.567284,75.765900 
	C95.266449,79.201645 94.556305,82.601562 94.018288,86.016541 
z"/>
<path fill="#A0B5F5" opacity="1.000000" stroke="none" 
	d="
M100.984192,96.033493 
	C100.416412,94.365150 99.848633,92.696800 99.179390,90.730301 
	C104.890640,84.340439 108.225372,76.605133 109.392349,67.389191 
	C110.458443,67.022743 111.141518,67.058174 112.023300,67.358376 
	C113.150711,68.690796 114.079399,69.758446 115.239914,71.092613 
	C119.319298,66.830223 122.784988,62.785862 123.085724,56.933765 
	C128.508408,56.695435 133.428558,57.592297 135.020081,63.751286 
	C135.546875,65.789886 135.000031,68.105919 134.539597,70.664848 
	C132.423920,72.689072 130.712708,74.343552 128.614319,76.083008 
	C127.548264,81.712669 126.869400,87.257347 125.873367,92.988266 
	C123.053650,94.115517 120.551109,95.056534 117.576294,96.013428 
	C111.730736,96.030716 106.357468,96.032104 100.984192,96.033493 
z"/>
<path fill="#FBFCFF" opacity="1.000000" stroke="none" 
	d="
M26.373192,53.718842 
	C25.461094,52.788586 24.127041,51.564106 24.098650,50.310074 
	C23.910427,41.995876 23.833967,33.668774 24.158321,25.362944 
	C24.216463,23.874075 26.258015,21.259642 27.466042,21.211082 
	C36.268898,20.857250 45.093044,21.000036 53.909496,21.085867 
	C54.559296,21.092194 55.201492,21.879917 55.932018,22.712744 
	C50.598839,26.077587 45.180866,29.034054 39.211586,31.798542 
	C32.193619,30.473967 29.722336,33.871647 31.040154,42.083206 
	C29.545168,45.859119 28.050182,49.635033 26.373192,53.718842 
z"/>
<path fill="#C3CFF8" opacity="1.000000" stroke="none" 
	d="
M111.824585,67.093613 
	C111.141518,67.058174 110.458443,67.022743 109.435364,66.969620 
	C109.579712,62.483093 107.064980,57.342480 112.268761,53.854923 
	C112.829193,53.479328 112.535789,50.512745 111.704132,49.591640 
	C106.480446,43.806149 105.884811,39.075768 110.032051,32.438194 
	C110.721024,31.335516 111.538574,30.313171 112.439072,29.054752 
	C116.255295,30.610291 119.578369,32.080856 120.898926,36.582603 
	C121.539230,38.765354 123.827850,40.464581 125.933167,43.082809 
	C123.743851,46.523438 115.768158,48.496098 119.897675,56.460182 
	C117.191483,60.489506 114.508026,63.791557 111.824585,67.093613 
z"/>
<path fill="#6591F1" opacity="1.000000" stroke="none" 
	d="
M128.881943,101.712067 
	C129.312668,109.055946 129.613007,116.084061 129.795959,123.570763 
	C123.118828,117.394112 116.559059,110.758888 110.371704,103.649673 
	C116.504639,101.494339 122.265160,99.813004 128.025681,98.131668 
	C128.267639,99.219887 128.509598,100.308098 128.881943,101.712067 
z"/>
<path fill="#C3CFF8" opacity="1.000000" stroke="none" 
	d="
M128.313965,97.942253 
	C122.265160,99.813004 116.504639,101.494339 110.358978,103.312309 
	C108.212418,103.339310 106.450348,103.239334 104.689751,103.117859 
	C101.787163,102.917580 100.713440,101.484505 102.283096,98.322556 
	C104.451576,98.227425 106.067177,98.432770 107.663467,98.738861 
	C111.574196,99.488762 115.185501,99.181091 118.048569,95.997543 
	C120.551109,95.056534 123.053650,94.115517 126.202621,92.961517 
	C128.187820,91.227264 130.643677,89.710045 130.649246,88.183922 
	C130.663986,84.124008 129.622803,80.060265 129.001511,75.998032 
	C130.712708,74.343552 132.423920,72.689072 134.483521,71.055817 
	C135.231339,75.499367 135.370499,79.964600 136.090942,84.333984 
	C137.181274,90.946495 134.221146,95.024284 128.313965,97.942253 
z"/>
<path fill="#A9BCF6" opacity="1.000000" stroke="none" 
	d="
M94.335625,85.887413 
	C94.556305,82.601562 95.266449,79.201645 95.567284,75.765900 
	C95.745529,73.730309 95.633080,71.526665 95.026985,69.594421 
	C93.731964,65.465851 96.746826,59.087929 101.251389,57.799461 
	C103.031563,68.012177 101.813370,77.622597 94.335625,85.887413 
z"/>
<path fill="#F3F5FD" opacity="1.000000" stroke="none" 
	d="
M112.023300,67.358368 
	C114.508026,63.791557 117.191483,60.489506 119.969971,56.816372 
	C120.826050,56.536549 121.587097,56.627808 122.716934,56.826416 
	C122.784988,62.785862 119.319298,66.830223 115.239914,71.092613 
	C114.079399,69.758446 113.150711,68.690796 112.023300,67.358368 
z"/>
<path fill="#E8EDFC" opacity="1.000000" stroke="none" 
	d="
M31.318897,41.896603 
	C29.722336,33.871647 32.193619,30.473967 38.885803,31.916805 
	C36.606762,35.388031 34.102203,38.549015 31.318897,41.896603 
z"/>
<path fill="#6591F1" opacity="1.000000" stroke="none" 
	d="
M117.576294,96.013435 
	C115.185501,99.181091 111.574196,99.488762 107.663467,98.738861 
	C106.067177,98.432770 104.451576,98.227425 102.411774,97.983612 
	C101.660919,97.533722 101.343056,97.076454 101.004692,96.326340 
	C106.357468,96.032104 111.730736,96.030716 117.576294,96.013435 
z"/>
<path fill="#FEFEFF" opacity="1.000000" stroke="none" 
	d="
M259.836243,158.373749 
	C272.001129,158.006912 272.001129,158.006912 271.998779,169.763962 
	C271.997345,176.997101 271.997345,176.997101 264.887421,176.999405 
	C263.235199,176.999939 261.582977,177.000549 259.465363,177.002090 
	C259.223053,170.921417 259.446136,164.839767 259.836243,158.373749 
z"/>
<path fill="#F8F9FE" opacity="1.000000" stroke="none" 
	d="
M146.932510,137.042206 
	C144.459229,129.845169 147.654709,123.555107 154.874634,122.776482 
	C157.366074,122.507805 160.869034,123.946487 162.565689,125.821579 
	C164.967285,128.475769 164.962723,132.208069 161.905655,135.553345 
	C161.010223,135.515060 160.544434,135.247650 159.842224,134.738342 
	C157.420837,133.862396 156.699707,132.848480 158.013748,130.579239 
	C158.479721,129.774521 158.108276,128.014694 157.471741,127.191551 
	C156.968872,126.541267 155.078156,126.124168 154.507553,126.548920 
	C153.462051,127.327194 152.646484,128.723389 152.289978,130.015106 
	C152.030426,130.955505 152.662872,132.142105 152.627472,131.979736 
	C150.992722,134.225235 149.981873,135.613708 148.631500,137.001877 
	C147.838806,137.015106 147.385651,137.028671 146.932510,137.042206 
z"/>
<path fill="#ECEFFD" opacity="1.000000" stroke="none" 
	d="
M147.107574,137.349960 
	C147.385651,137.028671 147.838806,137.015106 148.964462,137.165405 
	C154.534241,140.150909 156.893448,139.620163 160.078659,134.980240 
	C160.544434,135.247650 161.010223,135.515060 161.724792,135.882721 
	C157.118881,142.257553 152.801010,142.749771 147.107574,137.349960 
z"/>
<path fill="#F8F9FE" opacity="1.000000" stroke="none" 
	d="
M143.802216,165.206345 
	C140.120529,162.511871 141.780045,159.242523 143.364014,156.537872 
	C145.689407,152.567215 149.458878,150.245468 154.187698,151.363312 
	C157.787949,152.214386 160.455795,154.613617 159.989273,158.830933 
	C159.781723,160.707092 158.931717,162.512177 157.875946,164.658752 
	C157.179230,164.956131 156.979889,164.944290 156.766724,164.598877 
	C155.577927,163.792999 154.402954,163.320709 153.163574,162.495682 
	C153.312332,161.378479 153.637817,160.624939 153.713562,159.847076 
	C153.841370,158.534363 154.274582,156.922470 153.695984,155.977066 
	C153.256683,155.259277 150.938324,154.774338 150.354004,155.261902 
	C149.284485,156.154327 148.655365,157.784241 148.282913,159.220764 
	C148.071976,160.034256 148.736481,161.074738 148.644836,162.023926 
	C146.908768,163.005249 145.534546,163.975662 144.064880,165.002991 
	C143.969437,165.059906 143.802216,165.206345 143.802216,165.206345 
z"/>
<path fill="#ECEFFD" opacity="1.000000" stroke="none" 
	d="
M156.780548,164.932449 
	C156.979889,164.944290 157.179230,164.956131 157.677673,164.979919 
	C157.389389,165.803482 156.802032,166.615112 156.096008,167.705505 
	C155.977341,167.984268 156.001587,167.998489 155.993195,167.985260 
	C151.740768,168.569366 147.099213,171.540070 143.847198,165.576416 
	C143.802216,165.206345 143.969437,165.059906 144.356705,165.175049 
	C148.898148,169.948517 152.827118,167.028992 156.780548,164.932449 
z"/>
<path fill="#F8F9FE" opacity="1.000000" stroke="none" 
	d="
M153.962555,111.036911 
	C149.780289,108.733070 148.602859,104.069611 151.108505,99.732635 
	C153.975769,94.769676 160.097473,92.639786 164.304840,95.141273 
	C168.377686,97.562782 169.171341,102.326813 165.819046,107.665131 
	C164.871796,107.993416 164.442657,107.997063 163.985352,107.671288 
	C162.955734,106.572151 161.954285,105.802444 160.990051,104.672646 
	C161.225510,102.272644 161.423752,100.232742 161.621994,98.192833 
	C160.423828,98.133087 158.304626,97.733101 158.180176,98.070000 
	C157.482956,99.957314 157.254410,102.020241 156.900452,104.029297 
	C156.845291,104.342407 156.967789,104.686806 156.653336,105.045311 
	C154.879303,105.584778 153.460052,106.095665 151.367859,106.848801 
	C153.071869,108.338829 154.032486,109.178818 154.879303,110.240387 
	C154.553558,110.731422 154.285919,110.923065 153.962555,111.036911 
z"/>
<path fill="#E8EDFC" opacity="1.000000" stroke="none" 
	d="
M164.013504,108.000717 
	C164.442657,107.997063 164.871796,107.993416 165.621887,107.984695 
	C165.942825,107.979614 165.952560,108.461914 165.939056,108.702057 
	C165.349518,109.431831 164.773483,109.921455 164.067322,110.666229 
	C160.764984,111.133499 157.592804,111.345612 154.191589,111.297318 
	C154.285919,110.923065 154.553558,110.731422 155.292511,110.234505 
	C158.550858,109.338257 161.282181,108.669487 164.013504,108.000717 
z"/>
<path fill="#638FF1" opacity="1.000000" stroke="none" 
	d="
M128.614319,76.083015 
	C129.622803,80.060265 130.663986,84.124008 130.649246,88.183922 
	C130.643677,89.710045 128.187820,91.227264 126.519791,92.775284 
	C126.869400,87.257347 127.548264,81.712669 128.614319,76.083015 
z"/>
<path fill="#B6C6F7" opacity="1.000000" stroke="none" 
	d="
M159.842224,134.738342 
	C156.893448,139.620163 154.534241,140.150909 149.304016,137.165741 
	C149.981873,135.613708 150.992722,134.225235 152.627472,131.979736 
	C152.662872,132.142105 152.030426,130.955505 152.289978,130.015106 
	C152.646484,128.723389 153.462051,127.327194 154.507553,126.548920 
	C155.078156,126.124168 156.968872,126.541267 157.471741,127.191551 
	C158.108276,128.014694 158.479721,129.774521 158.013748,130.579239 
	C156.699707,132.848480 157.420837,133.862396 159.842224,134.738342 
z"/>
<path fill="#B6C6F7" opacity="1.000000" stroke="none" 
	d="
M156.766724,164.598877 
	C152.827118,167.028992 148.898148,169.948517 144.452148,165.118118 
	C145.534546,163.975662 146.908768,163.005249 148.890884,162.300323 
	C150.741867,162.660004 151.984924,162.754211 153.227997,162.848404 
	C154.402954,163.320709 155.577927,163.792999 156.766724,164.598877 
z"/>
<path fill="#C3CFF8" opacity="1.000000" stroke="none" 
	d="
M153.163574,162.495682 
	C151.984924,162.754211 150.741867,162.660004 149.252747,162.289398 
	C148.736481,161.074738 148.071976,160.034256 148.282913,159.220764 
	C148.655365,157.784241 149.284485,156.154327 150.354004,155.261902 
	C150.938324,154.774338 153.256683,155.259277 153.695984,155.977066 
	C154.274582,156.922470 153.841370,158.534363 153.713562,159.847076 
	C153.637817,160.624939 153.312332,161.378479 153.163574,162.495682 
z"/>
<path fill="#B6C6F7" opacity="1.000000" stroke="none" 
	d="
M163.985352,107.671288 
	C161.282181,108.669487 158.550858,109.338257 155.406311,110.012909 
	C154.032486,109.178818 153.071869,108.338829 151.367859,106.848801 
	C153.460052,106.095665 154.879303,105.584778 156.845245,105.295959 
	C158.578903,105.356277 159.765854,105.194504 160.952820,105.032730 
	C161.954285,105.802444 162.955734,106.572151 163.985352,107.671288 
z"/>
<path fill="#C3CFF8" opacity="1.000000" stroke="none" 
	d="
M160.990051,104.672638 
	C159.765854,105.194504 158.578903,105.356277 157.200043,105.267395 
	C156.967789,104.686806 156.845291,104.342407 156.900452,104.029297 
	C157.254410,102.020241 157.482956,99.957314 158.180176,98.070000 
	C158.304626,97.733101 160.423828,98.133087 161.621994,98.192833 
	C161.423752,100.232742 161.225510,102.272644 160.990051,104.672638 
z"/>
</svg>