<svg version="1.1" id="Layer_1" xmlns="http://www.w3.org/2000/svg" xmlns:xlink="http://www.w3.org/1999/xlink" x="0px" y="0px"
	 width="100%" viewBox="0 0 380 340" enable-background="new 0 0 380 340" xml:space="preserve">
<path fill="#FFFFFF" opacity="1.000000" stroke="none" 
	d="
M107.000000,341.000000 
	C71.678886,341.000000 36.357780,341.000000 1.018335,341.000000 
	C1.018335,227.718094 1.018335,114.436195 1.018335,1.077146 
	C127.571381,1.077146 254.142822,1.077146 380.857117,1.077146 
	C380.857117,114.333206 380.857117,227.666580 380.857117,341.000000 
	C348.914795,341.000000 316.926056,341.000000 284.532074,340.638855 
	C287.764893,338.901001 291.344391,337.337158 295.050385,336.177612 
	C322.252838,327.666290 347.905121,316.494141 366.642609,293.789459 
	C375.825165,282.662750 380.027374,269.959198 377.272491,255.410660 
	C374.354248,239.999237 364.848572,228.879425 353.302490,219.291458 
	C349.309998,215.976089 344.421448,213.739822 339.942261,210.620499 
	C339.861328,209.455826 339.780334,208.681305 339.764526,207.453094 
	C339.298920,201.094284 338.768097,195.189148 338.554230,189.166595 
	C342.719666,185.907883 345.952820,182.171341 344.799011,176.918091 
	C343.827179,172.493286 341.774872,168.305817 340.184296,163.583969 
	C340.131592,161.435272 340.095428,159.715866 340.267609,157.844452 
	C340.150146,157.045746 339.824310,156.399063 339.398315,155.465942 
	C339.207611,154.785614 339.117065,154.391693 339.239380,153.840302 
	C339.060516,153.065338 338.668823,152.447830 338.179260,151.451508 
	C337.320496,146.835938 336.615662,142.588074 335.780487,138.365997 
	C335.137085,135.113251 334.651672,131.775681 333.525360,128.683670 
	C331.476288,123.058411 325.438354,119.692215 319.537384,120.429527 
	C312.937775,121.254143 308.813141,124.655823 307.627258,130.259094 
	C307.337372,133.705078 306.784668,137.033096 307.462769,140.087936 
	C308.238708,143.583466 307.863159,148.763611 314.109283,148.404816 
	C314.124207,150.217575 314.103455,151.612946 313.823486,153.030930 
	C313.401245,153.112534 313.238251,153.171524 312.648560,153.181427 
	C309.754639,153.660095 306.743622,153.473373 304.927155,154.856018 
	C300.358765,158.333298 296.377808,162.573349 292.066681,166.400909 
	C289.424866,168.746384 286.608215,170.894943 283.444550,173.479599 
	C280.452606,168.627579 277.799530,164.325058 275.141968,159.552658 
	C275.132202,137.007233 275.126068,114.931694 275.121887,92.856155 
	C275.119659,81.071457 275.150879,69.286644 275.107513,57.502098 
	C275.086487,51.790398 273.638611,51.087467 268.658661,53.614803 
	C266.436890,54.742367 263.788635,55.029526 261.325012,55.249680 
	C261.307556,48.705994 261.388794,42.608910 261.264740,36.515999 
	C261.144928,30.631929 260.813446,24.752169 260.514191,18.496532 
	C257.396790,11.058483 250.002396,8.191940 243.241058,11.709812 
	C238.379013,14.239506 233.711716,17.143896 228.960587,19.886398 
	C205.779266,33.267399 182.556381,46.577679 159.476395,60.131275 
	C156.825577,61.687954 154.974121,64.605896 152.511414,67.240295 
	C152.144073,69.739983 151.908539,71.891983 151.906982,74.044159 
	C151.883408,106.863945 151.897186,139.683762 151.874771,172.503555 
	C151.873306,174.656799 151.649612,176.809891 151.132568,178.972961 
	C147.835190,179.320129 144.934540,179.657364 141.998688,179.552063 
	C141.972595,176.740784 141.981720,174.372086 142.220749,171.858398 
	C142.293549,171.139801 142.136444,170.566162 141.945023,169.581238 
	C141.604233,166.889297 141.321304,164.605209 140.986526,162.328735 
	C140.232529,157.201752 138.377472,152.587509 133.334061,150.407883 
	C128.801468,148.448990 124.325340,150.653152 119.940887,155.403366 
	C115.545753,160.165176 114.060120,165.908798 112.782593,172.256088 
	C112.315811,173.822098 111.897583,175.138733 112.055313,176.382309 
	C112.795212,182.215439 111.951637,186.973007 104.647423,187.866165 
	C101.191261,183.847534 97.697540,184.811630 94.458855,187.333740 
	C92.976532,188.488113 92.095345,190.414429 90.572350,192.035156 
	C76.906761,196.756058 63.881172,201.874985 51.825607,209.460022 
	C36.215664,219.281357 22.177408,230.444122 15.519457,248.313095 
	C13.430529,253.919464 11.741998,260.336975 12.306396,266.146515 
	C14.033248,283.921661 24.349827,297.310944 37.923973,307.771912 
	C57.211235,322.635742 79.142776,332.417389 102.839989,338.197632 
	C104.363838,338.569366 105.619553,340.040375 107.000000,341.000000 
z"/>
<path fill="#F5F7FE" opacity="1.000000" stroke="none" 
	d="
M339.942200,211.010651 
	C344.421448,213.739822 349.309998,215.976089 353.302490,219.291458 
	C364.848572,228.879425 374.354248,239.999237 377.272491,255.410660 
	C380.027374,269.959198 375.825165,282.662750 366.642609,293.789459 
	C347.905121,316.494141 322.252838,327.666290 295.050385,336.177612 
	C291.344391,337.337158 287.764893,338.901001 284.063416,340.638855 
	C225.312439,341.000000 166.624878,341.000000 107.468658,341.000000 
	C105.619553,340.040375 104.363838,338.569366 102.839989,338.197632 
	C79.142776,332.417389 57.211235,322.635742 37.923973,307.771912 
	C24.349827,297.310944 14.033248,283.921661 12.306396,266.146515 
	C11.741998,260.336975 13.430529,253.919464 15.519457,248.313095 
	C22.177408,230.444122 36.215664,219.281357 51.825607,209.460022 
	C63.881172,201.874985 76.906761,196.756058 90.545364,192.452118 
	C87.997490,208.727829 92.162506,222.721512 102.534248,234.913010 
	C105.435890,238.323746 108.946571,241.210815 111.929031,244.559692 
	C115.744911,248.844376 115.569748,251.373749 111.686600,254.653595 
	C106.919609,258.680054 106.136650,264.629944 110.694855,268.887329 
	C114.235771,272.194580 118.544167,274.969391 122.965561,276.984436 
	C132.177673,281.182892 142.202576,279.682709 151.993530,280.365936 
	C152.140625,281.309479 152.235657,281.938995 152.136749,282.905334 
	C150.922729,284.398010 149.902649,285.553864 148.567276,287.066956 
	C152.244583,289.124359 155.289642,291.130402 158.583694,292.564575 
	C160.771988,293.517334 163.303223,293.622986 164.308167,290.178894 
	C165.109100,290.111664 165.570267,290.111389 166.196259,290.319763 
	C166.926208,290.100494 167.491333,289.672516 168.384430,289.098907 
	C173.895859,286.008209 179.097321,283.094330 184.259689,280.112701 
	C207.235336,266.842621 230.206070,253.564011 253.161957,240.259811 
	C256.872284,238.109467 261.007721,236.263077 261.602051,231.113708 
	C265.190186,235.129730 267.771515,233.513733 270.406586,230.089874 
	C271.117676,229.723755 271.555756,229.412354 272.354370,229.061340 
	C278.053558,226.410721 283.016846,223.526413 286.396362,218.213959 
	C290.176849,212.271210 289.784821,210.187973 282.441193,207.922302 
	C283.458740,205.196762 284.624359,202.566208 285.417572,199.827789 
	C286.450897,196.260559 287.188751,192.607742 288.458771,188.994644 
	C294.861023,190.659805 300.858276,192.322083 306.879089,194.397339 
	C306.054382,201.043762 305.367126,207.304276 304.324524,213.505035 
	C302.107056,226.693481 300.476410,239.472504 308.191956,251.989029 
	C312.913757,259.649017 315.520935,268.612488 318.675232,277.000458 
	C313.678101,278.769836 308.808258,280.039154 304.563782,282.422272 
	C300.022675,284.971924 299.710693,290.157745 303.477936,293.829010 
	C305.203033,295.510162 307.487946,297.189209 309.758545,297.627167 
	C315.733429,298.779572 321.826019,299.630798 327.898773,299.848846 
	C331.434174,299.975800 335.114594,298.959015 338.563416,297.909973 
	C343.496033,296.409546 348.572357,293.756714 348.436310,288.106506 
	C348.313660,283.012360 343.267365,280.841949 338.845795,279.093018 
	C336.886322,278.317902 334.893219,277.627686 332.924744,276.477936 
	C334.020477,268.101044 335.106812,260.145172 336.512817,252.064911 
	C337.112335,250.922470 337.392212,249.904388 337.736023,248.482376 
	C337.835602,246.714478 337.871307,245.350510 338.139832,243.854218 
	C338.256866,243.146820 338.141083,242.571732 338.038208,241.554474 
	C337.433868,235.140442 336.816681,229.168564 336.462219,223.107910 
	C336.831787,222.344070 336.938629,221.669006 337.061218,220.616455 
	C337.130280,219.233505 337.183594,218.228043 337.493774,217.126450 
	C337.861389,216.349945 337.972107,215.669586 338.089783,214.639603 
	C338.128357,213.591537 338.159973,212.893097 338.455200,212.116943 
	C339.126617,211.696365 339.534424,211.353516 339.942200,211.010651 
M66.658554,286.864166 
	C67.187454,285.961243 67.716354,285.058319 68.983528,284.191895 
	C76.458893,281.954773 83.326279,266.764984 81.170685,257.812134 
	C80.374496,254.505310 78.829315,252.748199 75.403992,253.020508 
	C72.059212,253.286377 71.212830,255.508850 70.895943,258.509125 
	C70.354568,263.634979 69.452896,268.722778 68.663383,274.092926 
	C63.206814,271.714539 63.762398,267.810059 64.155609,263.959106 
	C64.457924,260.998230 64.750275,258.036255 65.028671,255.073059 
	C65.376732,251.368362 64.397087,248.039062 60.383774,247.453201 
	C56.424160,246.875168 53.176487,248.888855 51.992687,252.910278 
	C50.781773,257.023834 50.338909,261.378540 48.949387,265.417664 
	C48.326923,267.227081 46.443672,269.482056 44.740196,269.887878 
	C37.411129,271.633972 35.106346,277.050446 39.032841,283.574219 
	C40.373577,285.801819 40.887928,288.599243 41.441902,291.208099 
	C42.025074,293.954468 42.203941,296.786652 42.559475,299.581390 
	C45.117886,298.623901 47.704517,297.732910 50.216557,296.666229 
	C50.920444,296.367310 51.404655,295.551025 52.601406,294.960876 
	C53.067013,294.608765 53.532616,294.256622 54.704166,293.866516 
	C58.458279,291.545135 62.212391,289.223755 66.658554,286.864166 
z"/>
<path fill="#6A93F1" opacity="1.000000" stroke="none" 
	d="
M261.292145,231.054764 
	C261.007721,236.263077 256.872284,238.109467 253.161957,240.259811 
	C230.206070,253.564011 207.235336,266.842621 184.259689,280.112701 
	C179.097321,283.094330 173.895859,286.008209 168.087784,289.103119 
	C166.985916,289.539001 166.508667,289.825073 166.031433,290.111145 
	C165.570267,290.111389 165.109100,290.111664 164.244888,289.933411 
	C163.769104,289.602936 163.696350,289.450928 163.898132,289.045227 
	C164.120224,275.327942 164.044647,261.864410 164.021393,248.400787 
	C163.994766,232.991959 164.014557,217.583069 164.014328,202.174194 
	C164.014175,191.088043 164.014130,180.001892 164.014297,168.915741 
	C164.014526,152.507141 163.920700,136.097794 164.051788,119.690239 
	C164.126709,110.314018 165.239777,100.895966 164.619034,91.581139 
	C164.171432,84.864250 163.678513,78.407310 166.306366,71.852356 
	C177.334244,65.170341 187.967041,58.481964 198.801117,52.137352 
	C214.650696,42.855587 230.579010,33.702652 246.620026,24.757071 
	C251.002869,22.312893 255.908981,20.806999 260.574951,18.870512 
	C260.813446,24.752169 261.144928,30.631929 261.264740,36.515999 
	C261.388794,42.608910 261.307556,48.705994 261.205353,55.614777 
	C259.817261,57.587650 258.539917,58.746994 257.223907,59.455860 
	C257.185211,55.763844 257.185211,52.522305 257.185211,48.187210 
	C254.465897,49.515614 252.855255,50.188164 251.354980,51.052326 
	C225.700180,65.829498 200.085663,80.676926 174.386215,95.375916 
	C170.525116,97.584297 168.773621,100.173470 168.790009,104.874680 
	C168.961945,154.166458 168.891998,203.459061 168.912949,252.751434 
	C168.913681,254.469467 169.164703,256.187408 169.366364,258.765961 
	C174.801117,255.854828 179.397339,253.392868 183.993668,251.394470 
	C184.006851,254.491379 183.948471,257.127441 184.048462,259.757507 
	C184.232635,264.602325 185.880325,265.594208 190.246918,263.329071 
	C196.180649,260.251038 202.032242,257.014679 207.981201,254.224747 
	C209.179764,257.628662 211.538269,257.847626 213.360977,255.929443 
	C215.599960,253.573166 217.106079,250.520508 219.106384,247.485428 
	C229.838318,241.104111 240.392868,235.006241 250.981583,229.302643 
	C251.945267,231.714066 252.874771,233.731201 253.804291,235.748352 
	C255.365524,234.508377 256.897064,233.227951 258.502655,232.048386 
	C259.143646,231.577454 259.948151,231.329132 260.830658,231.006958 
	C260.983063,231.034439 261.292145,231.054764 261.292145,231.054764 
M214.066010,64.554016 
	C219.770432,60.915775 227.068588,59.429626 231.354263,52.526337 
	C224.831421,52.380623 206.698792,64.004021 206.764130,68.393410 
	C209.196045,67.171326 211.339951,66.093971 214.066010,64.554016 
M200.133224,72.683998 
	C199.769867,71.237099 199.406509,69.790199 199.043137,68.343300 
	C197.540771,70.099220 196.038406,71.855133 194.536057,73.611046 
	C194.986481,74.125343 195.436890,74.639641 195.887314,75.153938 
	C197.190308,74.557915 198.493301,73.961891 200.133224,72.683998 
z"/>
<path fill="#A3B8F5" opacity="1.000000" stroke="none" 
	d="
M151.941483,280.051941 
	C142.202576,279.682709 132.177673,281.182892 122.965561,276.984436 
	C118.544167,274.969391 114.235771,272.194580 110.694855,268.887329 
	C106.136650,264.629944 106.919609,258.680054 111.686600,254.653595 
	C115.569748,251.373749 115.744911,248.844376 111.929031,244.559692 
	C108.946571,241.210815 105.435890,238.323746 102.534248,234.913010 
	C92.162506,222.721512 87.997490,208.727829 90.914551,192.407623 
	C92.095345,190.414429 92.976532,188.488113 94.458855,187.333740 
	C97.697540,184.811630 101.191261,183.847534 104.703979,188.223465 
	C106.746750,192.547470 108.096130,196.550140 110.280273,200.028656 
	C111.149696,201.413315 113.866165,201.638229 115.741760,202.391113 
	C115.867615,200.913818 116.212128,199.417007 116.082443,197.962494 
	C115.436348,190.716156 114.687378,183.478607 113.920135,176.243759 
	C113.767799,174.807220 113.377205,173.395966 113.096481,171.973053 
	C114.060120,165.908798 115.545753,160.165176 119.940887,155.403366 
	C124.325340,150.653152 128.801468,148.448990 133.334061,150.407883 
	C138.377472,152.587509 140.232529,157.201752 140.986526,162.328735 
	C141.321304,164.605209 141.604233,166.889297 141.737000,169.733643 
	C141.705826,170.866028 141.848343,171.434692 141.990845,172.003372 
	C141.981720,174.372086 141.972595,176.740784 141.954880,180.019714 
	C141.934464,182.758865 141.783646,184.599380 141.935287,186.414642 
	C142.538864,193.639542 142.723831,200.957458 144.115845,208.033981 
	C144.812912,211.577652 146.687180,215.782135 151.897522,216.316971 
	C151.974106,237.875534 151.957794,258.963745 151.941483,280.051941 
M120.098923,238.312500 
	C120.193314,238.359772 120.287704,238.407059 120.382080,238.454346 
	C120.263832,238.295670 120.145584,238.136993 119.947060,237.304443 
	C118.970238,236.258713 117.993416,235.212997 117.016586,234.167267 
	C116.673050,234.611237 116.329506,235.055206 115.985962,235.499176 
	C117.316376,236.342392 118.646797,237.185623 120.098923,238.312500 
M130.103485,248.309723 
	C130.198685,248.356369 130.293869,248.403015 130.389053,248.449661 
	C130.268066,248.292862 130.147079,248.136063 130.018158,247.154266 
	C128.537201,238.275757 127.056252,229.397247 125.575294,220.518753 
	C125.159683,220.593231 124.744064,220.667709 124.328445,220.742188 
	C124.328445,221.362885 124.258476,221.992844 124.339256,222.602844 
	C125.155861,228.769608 127.069366,235.042130 126.457466,241.059479 
	C126.044121,245.124268 126.127853,246.989822 130.103485,248.309723 
M127.036301,165.919098 
	C127.359665,163.523590 127.683022,161.128098 128.006378,158.732605 
	C127.405312,158.711899 126.804237,158.691193 126.203163,158.670486 
	C124.434891,172.676514 123.980873,186.642487 127.667763,200.468658 
	C127.446373,189.260849 127.224983,178.053024 127.036301,165.919098 
M148.199265,259.076385 
	C144.365799,256.825195 140.532318,254.574005 136.102158,251.972397 
	C136.923553,254.277557 137.440094,255.727158 138.093735,257.561523 
	C134.230698,258.326752 130.855408,258.995392 127.480110,259.664001 
	C127.586235,260.182037 127.692360,260.700073 127.798492,261.218109 
	C131.517441,260.441406 135.220520,259.150024 138.959885,259.034637 
	C142.606644,258.922058 146.290482,260.011566 150.802368,260.702698 
	C149.612198,259.920380 149.205215,259.652863 148.199265,259.076385 
M102.022850,210.602280 
	C104.187256,215.015900 106.351669,219.429535 108.516075,223.843155 
	C108.994141,223.581772 109.472206,223.320389 109.950264,223.058990 
	C107.184448,217.390549 104.418633,211.722092 101.652809,206.053635 
	C101.213287,206.266830 100.773766,206.480026 100.334244,206.693222 
	C100.840851,207.763855 101.347450,208.834473 102.022850,210.602280 
M111.469292,225.370667 
	C110.420624,228.088654 111.584190,230.212906 116.379829,233.047073 
	C114.594109,230.024414 113.317490,227.863510 111.469292,225.370667 
z"/>
<path fill="#4D85F1" opacity="1.000000" stroke="none" 
	d="
M151.993530,280.365936 
	C151.957794,258.963745 151.974106,237.875534 151.929352,215.862427 
	C151.755310,202.946045 151.642303,190.954544 151.529297,178.963043 
	C151.649612,176.809891 151.873306,174.656799 151.874771,172.503555 
	C151.897186,139.683762 151.883408,106.863945 151.906982,74.044159 
	C151.908539,71.891983 152.144073,69.739983 152.919113,67.271286 
	C157.712051,68.636353 161.856659,70.318024 166.001251,71.999702 
	C163.678513,78.407310 164.171432,84.864250 164.619034,91.581139 
	C165.239777,100.895966 164.126709,110.314018 164.051788,119.690239 
	C163.920700,136.097794 164.014526,152.507141 164.014297,168.915741 
	C164.014130,180.001892 164.014175,191.088043 164.014328,202.174194 
	C164.014557,217.583069 163.994766,232.991959 164.021393,248.400787 
	C164.044647,261.864410 164.120224,275.327942 163.547379,289.031799 
	C159.391602,287.037598 155.861130,284.803070 152.330688,282.568542 
	C152.235657,281.938995 152.140625,281.309479 151.993530,280.365936 
M155.113693,106.429329 
	C156.045975,107.712891 156.822052,109.185211 158.005875,110.164825 
	C158.360413,110.458206 160.734207,109.142464 160.686005,108.960495 
	C160.286102,107.450996 159.800980,105.770599 158.758728,104.720337 
	C158.344070,104.302490 156.460968,105.341911 155.113693,106.429329 
M157.480789,128.954514 
	C158.543640,128.784882 159.606491,128.615250 160.669342,128.445633 
	C159.919266,126.952919 159.319366,125.347816 158.334045,124.031143 
	C158.008408,123.596008 156.688797,123.904701 155.823654,123.873299 
	C156.202850,125.402748 156.582031,126.932205 157.480789,128.954514 
z"/>
<path fill="#A6BAF6" opacity="1.000000" stroke="none" 
	d="
M336.193146,252.189270 
	C335.106812,260.145172 334.020477,268.101044 332.717163,276.520233 
	C332.500183,276.983521 332.080292,277.049652 331.675018,277.036316 
	C328.098511,276.618073 327.841431,278.632385 327.599609,280.989868 
	C325.455719,281.352142 323.697510,281.704071 321.683197,281.843964 
	C320.644012,280.084839 319.860870,278.537720 319.077759,276.990601 
	C315.520935,268.612488 312.913757,259.649017 308.191956,251.989029 
	C300.476410,239.472504 302.107056,226.693481 304.324524,213.505035 
	C305.367126,207.304276 306.054382,201.043762 306.944824,193.963531 
	C307.316376,190.392731 307.645691,187.668732 308.393921,184.956268 
	C316.970734,186.916962 325.030151,188.148849 332.328491,181.949799 
	C333.408691,182.435394 334.206299,182.749451 335.003510,183.421967 
	C336.081146,185.614960 337.159210,187.449493 338.237274,189.284027 
	C338.768097,195.189148 339.298920,201.094284 339.437866,207.571091 
	C338.761169,209.493408 338.476379,210.844025 338.191620,212.194656 
	C338.159973,212.893097 338.128357,213.591537 337.818298,214.822968 
	C337.438873,215.978180 337.337860,216.600388 337.236877,217.222595 
	C337.183594,218.228043 337.130280,219.233505 336.797058,220.799164 
	C336.411285,221.971802 336.305389,222.584244 336.199524,223.196671 
	C336.816681,229.168564 337.433868,235.140442 337.811493,241.691620 
	C337.683624,242.842773 337.795319,243.414658 337.907013,243.986526 
	C337.871307,245.350510 337.835602,246.714478 337.425171,248.595749 
	C336.764648,250.138443 336.478912,251.163864 336.193146,252.189270 
M322.156067,216.282654 
	C320.484283,221.206741 318.950226,226.183472 317.095215,231.037537 
	C315.726440,234.619080 315.919281,237.434906 318.607635,240.556534 
	C320.426117,242.668106 321.149384,245.825165 322.018829,248.621460 
	C322.802673,251.142487 323.119110,253.808838 323.641663,256.411102 
	C324.105743,256.352509 324.569855,256.293915 325.033936,256.235321 
	C324.660492,249.933670 324.269165,243.632996 323.918640,237.330078 
	C323.560608,230.892899 323.242584,224.453476 323.663727,217.877121 
	C324.034271,217.574524 324.705963,217.294495 324.730560,216.965973 
	C325.154144,211.312531 327.377289,206.881897 332.807007,204.446808 
	C333.267059,204.240479 333.462250,203.443558 333.886780,202.746506 
	C324.602692,203.877975 321.562592,207.702286 322.156067,216.282654 
z"/>
<path fill="#5E8EF1" opacity="1.000000" stroke="none" 
	d="
M166.306366,71.852356 
	C161.856659,70.318024 157.712051,68.636353 153.159760,66.923683 
	C154.974121,64.605896 156.825577,61.687954 159.476395,60.131275 
	C182.556381,46.577679 205.779266,33.267399 228.960587,19.886398 
	C233.711716,17.143896 238.379013,14.239506 243.241058,11.709812 
	C250.002396,8.191940 257.396790,11.058483 260.514221,18.496532 
	C255.908981,20.806999 251.002869,22.312893 246.620026,24.757071 
	C230.579010,33.702652 214.650696,42.855587 198.801117,52.137352 
	C187.967041,58.481964 177.334244,65.170341 166.306366,71.852356 
z"/>
<path fill="#A6BAF6" opacity="1.000000" stroke="none" 
	d="
M207.919067,253.846222 
	C202.032242,257.014679 196.180649,260.251038 190.246918,263.329071 
	C185.880325,265.594208 184.232635,264.602325 184.048462,259.757507 
	C183.948471,257.127441 184.006851,254.491379 183.993057,250.932068 
	C184.005722,240.519043 184.029556,231.031982 184.030609,221.544907 
	C184.034653,185.260193 184.054565,148.975449 184.008347,112.690788 
	C184.000504,106.539078 185.298279,101.564407 191.432144,98.280457 
	C202.556137,92.324898 213.369568,85.785355 224.266373,79.410507 
	C235.294281,72.958977 246.266174,66.411690 257.262604,59.906342 
	C258.539917,58.746994 259.817261,57.587650 261.214264,56.063202 
	C263.788635,55.029526 266.436890,54.742367 268.658661,53.614803 
	C273.638611,51.087467 275.086487,51.790398 275.107513,57.502098 
	C275.150879,69.286644 275.119659,81.071457 275.121887,92.856155 
	C275.126068,114.931694 275.132202,137.007233 274.756531,159.492813 
	C273.872040,158.557510 273.368561,157.212158 272.881531,155.412277 
	C272.898010,122.303169 272.898010,89.648605 272.898010,55.861866 
	C269.285980,57.526852 266.972504,58.378933 264.869720,59.595303 
	C240.847336,73.491310 216.924393,87.561325 192.796906,101.271637 
	C188.389801,103.775955 186.865265,106.679321 186.879578,111.594833 
	C187.019226,159.551804 186.957703,207.509369 186.969772,255.466766 
	C186.970215,257.186432 187.139648,258.906036 187.266235,261.306702 
	C190.265259,259.969238 192.621780,259.171844 194.724213,257.940582 
	C211.361938,248.197067 227.908859,238.297409 244.608597,228.662216 
	C246.719086,227.444489 249.553604,227.481659 252.011536,227.193100 
	C251.992523,227.619980 252.014618,227.791183 251.804596,228.055054 
	C251.280563,228.332596 251.072220,228.586151 250.947418,228.908356 
	C240.392868,235.006241 229.838318,241.104111 218.741302,247.546646 
	C214.772232,249.876297 211.345657,251.861267 207.919067,253.846222 
z"/>
<path fill="#5C8DF1" opacity="1.000000" stroke="none" 
	d="
M339.026489,153.997742 
	C339.117065,154.391693 339.207611,154.785614 339.266907,155.772278 
	C339.510193,156.908844 339.784698,157.452667 340.059235,157.996475 
	C340.095428,159.715866 340.131592,161.435272 339.878052,163.746460 
	C337.391357,166.322037 335.194336,168.305801 332.672241,170.227112 
	C331.531433,170.356644 330.715698,170.548630 329.489227,170.717316 
	C319.485901,170.368393 316.251007,168.266479 314.365265,160.841705 
	C314.355682,160.111771 314.166901,159.557556 313.986389,158.602341 
	C313.972229,157.132172 313.949738,156.063004 314.144775,154.857254 
	C314.269135,154.149887 314.175934,153.579117 314.082733,153.008331 
	C314.103455,151.612946 314.124207,150.217575 314.366974,148.133148 
	C315.681915,145.288803 316.836639,143.161835 317.841888,140.966385 
	C318.352234,139.851791 318.975525,138.555161 318.806641,137.454544 
	C318.711517,136.834686 317.151398,136.321671 316.173370,135.990646 
	C315.313782,135.699722 314.345703,135.729233 313.312378,135.603439 
	C313.027588,132.972870 312.775238,130.642029 312.510864,128.199997 
	C310.587738,128.960632 309.247955,129.490540 307.908173,130.020447 
	C308.813141,124.655823 312.937775,121.254143 319.537384,120.429527 
	C325.438354,119.692215 331.476288,123.058411 333.525360,128.683670 
	C334.651672,131.775681 335.137085,135.113251 335.780487,138.365997 
	C336.615662,142.588074 337.320496,146.835938 338.102020,151.763245 
	C338.423920,152.968445 338.725220,153.483093 339.026489,153.997742 
z"/>
<path fill="#CAD6F9" opacity="1.000000" stroke="none" 
	d="
M272.865051,155.866821 
	C273.368561,157.212158 273.872040,158.557510 274.760986,159.962692 
	C277.799530,164.325058 280.452606,168.627579 283.444550,173.479599 
	C286.608215,170.894943 289.424866,168.746384 292.066681,166.400909 
	C296.377808,162.573349 300.358765,158.333298 304.927155,154.856018 
	C306.743622,153.473373 309.754639,153.660095 312.637115,153.464508 
	C313.042999,154.180069 313.033600,154.563477 312.739990,155.204437 
	C312.007843,157.333481 311.894867,159.378082 311.037109,161.037750 
	C309.583740,163.849945 307.660156,166.419144 305.573486,169.074417 
	C303.951233,169.728241 302.542023,170.216293 301.454041,171.099823 
	C296.976898,174.735626 292.680573,178.596756 288.159973,182.175674 
	C282.981384,186.275528 281.947784,186.054382 277.324280,181.042892 
	C276.842194,180.520370 275.889252,180.432281 275.101868,179.730774 
	C274.361450,177.209000 273.673920,175.099060 272.938171,172.639343 
	C269.031403,166.808594 265.423126,161.124649 261.210266,155.931107 
	C259.057892,153.277679 257.139465,151.342346 259.411957,147.809952 
	C259.962311,146.954422 259.114197,145.199219 258.934814,143.502045 
	C258.975220,142.429810 258.989929,141.713272 259.002319,140.998383 
	C259.000000,141.000015 258.995117,141.005234 259.381866,141.000214 
	C260.791870,140.963364 261.815094,140.931534 262.880676,141.272888 
	C264.000366,143.750137 265.077789,145.854156 266.210358,148.065918 
	C267.984344,146.813217 269.086578,146.034897 271.027710,144.664200 
	C270.809723,147.374374 270.307220,149.198090 270.626862,150.864090 
	C270.961975,152.610519 272.085876,154.205597 272.865051,155.866821 
z"/>
<path fill="#F5F7FE" opacity="1.000000" stroke="none" 
	d="
M151.132568,178.972961 
	C151.642303,190.954544 151.755310,202.946045 151.836456,215.392090 
	C146.687180,215.782135 144.812912,211.577652 144.115845,208.033981 
	C142.723831,200.957458 142.538864,193.639542 141.935287,186.414642 
	C141.783646,184.599380 141.934464,182.758865 141.990082,180.462280 
	C144.934540,179.657364 147.835190,179.320129 151.132568,178.972961 
z"/>
<path fill="#B7C7F7" opacity="1.000000" stroke="none" 
	d="
M332.997314,170.289566 
	C335.194336,168.305801 337.391357,166.322037 339.894592,164.175781 
	C341.774872,168.305817 343.827179,172.493286 344.799011,176.918091 
	C345.952820,182.171341 342.719666,185.907883 338.554230,189.166595 
	C337.159210,187.449493 336.081146,185.614960 335.134430,183.066681 
	C335.228882,180.648590 335.437256,178.893311 335.096649,177.251953 
	C334.606079,174.887741 333.716553,172.606323 332.997314,170.289566 
z"/>
<path fill="#EBEFFD" opacity="1.000000" stroke="none" 
	d="
M112.782585,172.256088 
	C113.377205,173.395966 113.767799,174.807220 113.920135,176.243759 
	C114.687378,183.478607 115.436348,190.716156 116.082443,197.962494 
	C116.212128,199.417007 115.867615,200.913818 115.741760,202.391113 
	C113.866165,201.638229 111.149696,201.413315 110.280273,200.028656 
	C108.096130,196.550140 106.746750,192.547470 105.006088,188.397675 
	C111.951637,186.973007 112.795212,182.215439 112.055313,176.382309 
	C111.897583,175.138733 112.315811,173.822098 112.782585,172.256088 
z"/>
<path fill="#B7C7F7" opacity="1.000000" stroke="none" 
	d="
M307.627258,130.259094 
	C309.247955,129.490540 310.587738,128.960632 312.510864,128.199997 
	C312.775238,130.642029 313.027588,132.972870 313.312378,135.603439 
	C314.345703,135.729233 315.313782,135.699722 316.173370,135.990646 
	C317.151398,136.321671 318.711517,136.834686 318.806641,137.454544 
	C318.975525,138.555161 318.352234,139.851791 317.841888,140.966385 
	C316.836639,143.161835 315.681915,145.288803 314.331329,147.715759 
	C307.863159,148.763611 308.238708,143.583466 307.462769,140.087936 
	C306.784668,137.033096 307.337372,133.705078 307.627258,130.259094 
z"/>
<path fill="#C3D0F9" opacity="1.000000" stroke="none" 
	d="
M338.455200,212.116943 
	C338.476379,210.844025 338.761169,209.493408 339.372650,208.024780 
	C339.780334,208.681305 339.861328,209.455826 339.942261,210.620514 
	C339.534424,211.353516 339.126617,211.696365 338.455200,212.116943 
z"/>
<path fill="#F5F7FE" opacity="1.000000" stroke="none" 
	d="
M142.220734,171.858398 
	C141.848343,171.434692 141.705826,170.866028 141.771332,170.144943 
	C142.136444,170.566162 142.293549,171.139801 142.220734,171.858398 
z"/>
<path fill="#B7C7F7" opacity="1.000000" stroke="none" 
	d="
M340.267609,157.844452 
	C339.784698,157.452667 339.510193,156.908844 339.367065,156.058701 
	C339.824310,156.399063 340.150146,157.045746 340.267609,157.844452 
z"/>
<path fill="#B7C7F7" opacity="1.000000" stroke="none" 
	d="
M313.024200,154.946899 
	C313.033600,154.563477 313.042999,154.180069 313.063843,153.513580 
	C313.238251,153.171524 313.401245,153.112534 313.823486,153.030930 
	C314.175934,153.579117 314.269135,154.149887 313.918396,154.860657 
	C313.474426,155.000626 313.024200,154.946899 313.024200,154.946899 
z"/>
<path fill="#B7C7F7" opacity="1.000000" stroke="none" 
	d="
M339.239380,153.840302 
	C338.725220,153.483093 338.423920,152.968445 338.199890,152.142044 
	C338.668823,152.447830 339.060516,153.065338 339.239380,153.840302 
z"/>
<path fill="#A4B9F6" opacity="1.000000" stroke="none" 
	d="
M51.989635,294.972076 
	C51.404655,295.551025 50.920444,296.367310 50.216557,296.666229 
	C47.704517,297.732910 45.117886,298.623901 42.559471,299.581360 
	C42.203941,296.786652 42.025074,293.954468 41.441902,291.208099 
	C40.887928,288.599243 40.373577,285.801819 39.032841,283.574219 
	C35.106346,277.050446 37.411129,271.633972 44.740196,269.887878 
	C46.443672,269.482056 48.326923,267.227081 48.949387,265.417664 
	C50.338909,261.378540 50.781773,257.023834 51.992687,252.910278 
	C53.176487,248.888855 56.424160,246.875168 60.383774,247.453201 
	C64.397087,248.039062 65.376732,251.368362 65.028671,255.073059 
	C64.750275,258.036255 64.457924,260.998230 64.155609,263.959106 
	C63.762398,267.810059 63.206814,271.714539 68.663383,274.092926 
	C69.452896,268.722778 70.354568,263.634979 70.895943,258.509125 
	C71.212830,255.508850 72.059212,253.286377 75.403992,253.020508 
	C78.829315,252.748199 80.374496,254.505310 81.170685,257.812134 
	C83.326279,266.764984 76.458893,281.954773 68.245209,284.153778 
	C66.993431,285.044556 66.479965,285.973480 65.966499,286.902405 
	C62.212391,289.223755 58.458279,291.545135 54.354652,293.491333 
	C54.583286,291.050446 55.161442,288.984680 55.635563,287.290649 
	C55.065327,285.209320 53.902882,283.193573 54.112129,281.332031 
	C54.883293,274.471252 56.060280,267.653473 57.192356,260.837433 
	C57.536873,258.763153 58.228470,256.746521 58.761101,254.703491 
	C58.073669,254.561874 57.386238,254.420273 56.698803,254.278656 
	C54.944603,263.266022 53.190399,272.253357 51.349384,281.685486 
	C49.939720,280.108185 48.798290,278.831024 47.656857,277.553864 
	C49.942329,283.216583 53.637856,288.397400 51.989635,294.972076 
M61.325573,281.047638 
	C60.624851,281.707855 59.924129,282.368073 59.223412,283.028290 
	C59.641228,283.329010 60.059044,283.629761 60.476856,283.930511 
	C60.991493,282.958496 61.506130,281.986511 62.430965,280.759552 
	C62.412861,280.400696 62.394760,280.041840 62.376659,279.682983 
	C62.243309,280.114166 62.109962,280.545349 61.325573,281.047638 
M70.397606,281.548553 
	C76.552254,273.411194 79.224960,263.824341 76.255905,257.234222 
	C75.689995,259.888458 75.409355,261.498505 74.998970,263.074829 
	C73.720413,267.985840 72.412201,272.889374 71.070999,277.783600 
	C70.716362,279.077759 70.201347,280.327942 70.397606,281.548553 
z"/>
<path fill="#EBEFFD" opacity="1.000000" stroke="none" 
	d="
M318.675232,277.000458 
	C319.860870,278.537720 320.644012,280.084839 321.695374,282.218506 
	C321.151550,283.435822 320.384491,284.511261 319.517426,284.598999 
	C318.003418,284.752228 316.427887,284.297821 314.497314,284.083496 
	C312.763702,284.742584 311.410889,285.416260 310.058105,286.089905 
	C311.122803,287.207245 311.987762,288.836121 313.290161,289.344635 
	C316.983795,290.786804 320.914520,291.611938 324.642212,292.979156 
	C328.541962,294.409393 330.342743,293.187805 330.726562,289.045227 
	C332.532623,287.987213 334.214233,287.022766 331.215210,285.601379 
	C331.602844,282.502380 331.841553,279.776001 332.080261,277.049652 
	C332.080292,277.049652 332.500183,276.983521 332.707764,276.941223 
	C334.893219,277.627686 336.886322,278.317902 338.845795,279.093018 
	C343.267365,280.841949 348.313660,283.012360 348.436310,288.106506 
	C348.572357,293.756714 343.496033,296.409546 338.563416,297.909973 
	C335.114594,298.959015 331.434174,299.975800 327.898773,299.848846 
	C321.826019,299.630798 315.733429,298.779572 309.758545,297.627167 
	C307.487946,297.189209 305.203033,295.510162 303.477936,293.829010 
	C299.710693,290.157745 300.022675,284.971924 304.563782,282.422272 
	C308.808258,280.039154 313.678101,278.769836 318.675232,277.000458 
z"/>
<path fill="#A4B9F6" opacity="1.000000" stroke="none" 
	d="
M272.986389,172.989136 
	C273.673920,175.099060 274.361450,177.209000 275.084808,180.160431 
	C275.135986,183.618469 275.151276,186.235001 275.104736,189.251556 
	C275.145844,190.964523 275.248871,192.277512 275.351868,193.590485 
	C275.748352,193.710770 276.144806,193.831055 276.541290,193.951340 
	C277.355682,192.627747 278.170044,191.304138 279.221497,189.695358 
	C282.323608,189.270706 285.188721,189.131241 288.053772,188.991760 
	C287.188751,192.607742 286.450897,196.260559 285.417572,199.827789 
	C284.624359,202.566208 283.458740,205.196762 282.441193,207.922302 
	C289.784821,210.187973 290.176849,212.271210 286.396362,218.213959 
	C283.016846,223.526413 278.053558,226.410721 272.355103,228.621094 
	C271.351898,223.665863 272.687408,220.674210 277.656921,219.449570 
	C279.670471,218.953384 281.276764,216.804565 283.068359,215.407761 
	C282.773193,215.022583 282.478027,214.637421 282.182892,214.252243 
	C279.582703,215.968521 276.982544,217.684799 273.704773,219.848373 
	C273.517731,217.697983 273.421356,216.590286 273.245636,214.570145 
	C271.903595,217.642960 270.952423,219.820862 269.970886,221.686798 
	C269.492401,220.803574 269.044281,220.232346 268.596161,219.661118 
	C268.354736,219.952530 268.113312,220.243942 267.871887,220.535355 
	C268.580872,221.023972 269.289825,221.512604 269.992981,222.449280 
	C270.036011,225.313080 270.084808,227.728836 270.133606,230.144577 
	C267.771515,233.513733 265.190186,235.129730 261.602051,231.113708 
	C261.292145,231.054764 260.983063,231.034439 260.944519,230.690079 
	C260.953552,229.238205 261.001099,228.130692 261.094971,226.731186 
	C261.784821,226.053482 262.428314,225.667786 263.479828,225.037537 
	C261.386322,223.874680 259.681732,222.927841 258.013611,221.632706 
	C261.223999,219.277374 264.237183,216.925278 267.613312,215.352173 
	C271.675751,213.459274 273.042297,210.655838 272.971924,206.313248 
	C272.791962,195.208206 272.958466,184.097549 272.986389,172.989136 
M276.188171,203.743301 
	C275.826141,205.203461 275.464111,206.663635 275.102081,208.123810 
	C275.481659,208.247498 275.861237,208.371185 276.240814,208.494873 
	C277.812897,204.945145 279.385010,201.395416 280.957092,197.845688 
	C280.484131,197.609207 280.011200,197.372742 279.538239,197.136276 
	C278.519501,199.113037 277.500793,201.089813 276.188171,203.743301 
M281.697418,195.579742 
	C281.986511,195.303009 282.278320,195.028824 282.549377,194.735413 
	C282.556458,194.727753 282.336365,194.510208 282.222198,194.390533 
	C281.933289,194.667358 281.644379,194.944183 281.697418,195.579742 
z"/>
<path fill="#FDFDFF" opacity="1.000000" stroke="none" 
	d="
M288.458801,188.994644 
	C285.188721,189.131241 282.323608,189.270706 278.887146,189.661713 
	C277.266052,189.559341 276.216309,189.205444 275.166595,188.851547 
	C275.151276,186.235001 275.135986,183.618469 275.137726,180.572266 
	C275.889252,180.432281 276.842194,180.520370 277.324280,181.042892 
	C281.947784,186.054382 282.981384,186.275528 288.159973,182.175674 
	C292.680573,178.596756 296.976898,174.735626 301.454041,171.099823 
	C302.542023,170.216293 303.951233,169.728241 305.593872,169.486908 
	C306.641724,174.925217 307.308380,179.934982 307.975037,184.944733 
	C307.645691,187.668732 307.316376,190.392731 306.921265,193.550537 
	C300.858276,192.322083 294.861023,190.659805 288.458801,188.994644 
z"/>
<path fill="#B7C7F7" opacity="1.000000" stroke="none" 
	d="
M52.295521,294.966492 
	C53.637856,288.397400 49.942329,283.216583 47.656857,277.553864 
	C48.798290,278.831024 49.939720,280.108185 51.349384,281.685486 
	C53.190399,272.253357 54.944603,263.266022 56.698803,254.278656 
	C57.386238,254.420273 58.073669,254.561874 58.761101,254.703491 
	C58.228470,256.746521 57.536873,258.763153 57.192356,260.837433 
	C56.060280,267.653473 54.883293,274.471252 54.112129,281.332031 
	C53.902882,283.193573 55.065327,285.209320 55.635563,287.290649 
	C55.161442,288.984680 54.583286,291.050446 54.001678,293.510315 
	C53.532616,294.256622 53.067013,294.608765 52.295521,294.966492 
z"/>
<path fill="#DBE2FA" opacity="1.000000" stroke="none" 
	d="
M152.136749,282.905334 
	C155.861130,284.803070 159.391602,287.037598 163.272827,289.285492 
	C163.696350,289.450928 163.769104,289.602936 163.905121,290.000397 
	C163.303223,293.622986 160.771988,293.517334 158.583694,292.564575 
	C155.289642,291.130402 152.244583,289.124359 148.567276,287.066956 
	C149.902649,285.553864 150.922729,284.398010 152.136749,282.905334 
z"/>
<path fill="#C3D0F9" opacity="1.000000" stroke="none" 
	d="
M270.001221,221.998779 
	C270.952423,219.820862 271.903595,217.642960 273.245636,214.570145 
	C273.421356,216.590286 273.517731,217.697983 273.704773,219.848373 
	C276.982544,217.684799 279.582703,215.968521 282.182892,214.252243 
	C282.478027,214.637421 282.773193,215.022583 283.068359,215.407761 
	C281.276764,216.804565 279.670471,218.953384 277.656921,219.449570 
	C272.687408,220.674210 271.351898,223.665863 271.994629,228.660706 
	C271.555756,229.412354 271.117676,229.723755 270.406586,230.089874 
	C270.084808,227.728836 270.036011,225.313080 269.993591,222.448669 
	C270.000000,222.000000 270.001221,221.998779 270.001221,221.998779 
z"/>
<path fill="#C3D0F9" opacity="1.000000" stroke="none" 
	d="
M336.512817,252.064911 
	C336.478912,251.163864 336.764648,250.138443 337.361237,248.999664 
	C337.392212,249.904388 337.112335,250.922470 336.512817,252.064911 
z"/>
<path fill="#B7C7F7" opacity="1.000000" stroke="none" 
	d="
M66.312531,286.883270 
	C66.479965,285.973480 66.993431,285.044556 67.876083,284.135529 
	C67.716354,285.058319 67.187454,285.961243 66.312531,286.883270 
z"/>
<path fill="#DBE2FA" opacity="1.000000" stroke="none" 
	d="
M166.196259,290.319794 
	C166.508667,289.825073 166.985916,289.539001 167.759811,289.248749 
	C167.491333,289.672516 166.926208,290.100494 166.196259,290.319794 
z"/>
<path fill="#C3D0F9" opacity="1.000000" stroke="none" 
	d="
M338.139832,243.854218 
	C337.795319,243.414658 337.683624,242.842773 337.798645,242.133759 
	C338.141083,242.571732 338.256866,243.146820 338.139832,243.854218 
z"/>
<path fill="#C3D0F9" opacity="1.000000" stroke="none" 
	d="
M336.462219,223.107910 
	C336.305389,222.584244 336.411285,221.971802 336.781311,221.176651 
	C336.938629,221.669006 336.831787,222.344070 336.462219,223.107910 
z"/>
<path fill="#C3D0F9" opacity="1.000000" stroke="none" 
	d="
M337.493774,217.126450 
	C337.337860,216.600388 337.438873,215.978180 337.811340,215.172607 
	C337.972107,215.669586 337.861389,216.349945 337.493774,217.126450 
z"/>
<path fill="#FCFDFF" opacity="1.000000" stroke="none" 
	d="
M257.223907,59.455864 
	C246.266174,66.411690 235.294281,72.958977 224.266373,79.410507 
	C213.369568,85.785355 202.556137,92.324898 191.432144,98.280457 
	C185.298279,101.564407 184.000504,106.539078 184.008347,112.690788 
	C184.054565,148.975449 184.034653,185.260193 184.030609,221.544907 
	C184.029556,231.031982 184.005722,240.519043 183.992935,250.468521 
	C179.397339,253.392868 174.801117,255.854828 169.366364,258.765961 
	C169.164703,256.187408 168.913681,254.469467 168.912949,252.751434 
	C168.891998,203.459061 168.961945,154.166458 168.790009,104.874680 
	C168.773621,100.173470 170.525116,97.584297 174.386215,95.375916 
	C200.085663,80.676926 225.700180,65.829498 251.354980,51.052326 
	C252.855255,50.188164 254.465897,49.515614 257.185211,48.187210 
	C257.185211,52.522305 257.185211,55.763844 257.223907,59.455864 
z"/>
<path fill="#5C8DF1" opacity="1.000000" stroke="none" 
	d="
M213.774933,64.785324 
	C211.339951,66.093971 209.196045,67.171326 206.764130,68.393410 
	C206.698792,64.004021 224.831421,52.380623 231.354263,52.526337 
	C227.068588,59.429626 219.770432,60.915775 213.774933,64.785324 
z"/>
<path fill="#5E8EF1" opacity="1.000000" stroke="none" 
	d="
M207.981201,254.224762 
	C211.345657,251.861267 214.772232,249.876297 218.563904,247.830093 
	C217.106079,250.520508 215.599960,253.573166 213.360977,255.929443 
	C211.538269,257.847626 209.179764,257.628662 207.981201,254.224762 
z"/>
<path fill="#5C7ECC" opacity="1.000000" stroke="none" 
	d="
M261.048645,227.023193 
	C261.001099,228.130692 260.953552,229.238205 260.792114,230.662598 
	C259.948151,231.329132 259.143646,231.577454 258.502655,232.048386 
	C256.897064,233.227951 255.365524,234.508377 253.804291,235.748352 
	C252.874771,233.731201 251.945267,231.714066 250.981583,229.302643 
	C251.072220,228.586151 251.280563,228.332596 252.124191,228.182800 
	C253.412949,229.382095 254.149963,230.546280 254.659760,231.351532 
	C256.838562,229.875427 258.943604,228.449310 261.048645,227.023193 
z"/>
<path fill="#5C8DF1" opacity="1.000000" stroke="none" 
	d="
M199.964752,73.024933 
	C198.493301,73.961891 197.190308,74.557915 195.887314,75.153938 
	C195.436890,74.639641 194.986481,74.125343 194.536057,73.611046 
	C196.038406,71.855133 197.540771,70.099220 199.043137,68.343300 
	C199.406509,69.790199 199.769867,71.237099 199.964752,73.024933 
z"/>
<path fill="#B7C7F7" opacity="1.000000" stroke="none" 
	d="
M127.019943,166.382156 
	C127.224983,178.053024 127.446373,189.260849 127.667763,200.468658 
	C123.980873,186.642487 124.434891,172.676514 126.203163,158.670486 
	C126.804237,158.691193 127.405312,158.711899 128.006378,158.732605 
	C127.683022,161.128098 127.359665,163.523590 127.019943,166.382156 
z"/>
<path fill="#B7C7F7" opacity="1.000000" stroke="none" 
	d="
M129.979752,248.025757 
	C126.127853,246.989822 126.044121,245.124268 126.457466,241.059479 
	C127.069366,235.042130 125.155861,228.769608 124.339256,222.602844 
	C124.258476,221.992844 124.328445,221.362885 124.328445,220.742188 
	C124.744064,220.667709 125.159683,220.593231 125.575294,220.518753 
	C127.056252,229.397247 128.537201,238.275757 130.009399,247.577255 
	C130.000626,248.000244 129.979752,248.025757 129.979752,248.025757 
z"/>
<path fill="#B7C7F7" opacity="1.000000" stroke="none" 
	d="
M148.498749,259.230865 
	C149.205215,259.652863 149.612198,259.920380 150.802368,260.702698 
	C146.290482,260.011566 142.606644,258.922058 138.959885,259.034637 
	C135.220520,259.150024 131.517441,260.441406 127.798492,261.218109 
	C127.692360,260.700073 127.586235,260.182037 127.480110,259.664001 
	C130.855408,258.995392 134.230698,258.326752 138.093735,257.561523 
	C137.440094,255.727158 136.923553,254.277557 136.102158,251.972397 
	C140.532318,254.574005 144.365799,256.825195 148.498749,259.230865 
z"/>
<path fill="#B7C7F7" opacity="1.000000" stroke="none" 
	d="
M101.938446,210.253693 
	C101.347450,208.834473 100.840851,207.763855 100.334244,206.693222 
	C100.773766,206.480026 101.213287,206.266830 101.652809,206.053635 
	C104.418633,211.722092 107.184448,217.390549 109.950264,223.058990 
	C109.472206,223.320389 108.994141,223.581772 108.516075,223.843155 
	C106.351669,219.429535 104.187256,215.015900 101.938446,210.253693 
z"/>
<path fill="#B7C7F7" opacity="1.000000" stroke="none" 
	d="
M111.755081,225.536621 
	C113.317490,227.863510 114.594109,230.024414 116.379829,233.047073 
	C111.584190,230.212906 110.420624,228.088654 111.755081,225.536621 
z"/>
<path fill="#B7C7F7" opacity="1.000000" stroke="none" 
	d="
M119.977219,238.028839 
	C118.646797,237.185623 117.316376,236.342392 115.985962,235.499176 
	C116.329506,235.055206 116.673050,234.611237 117.016586,234.167267 
	C117.993416,235.212997 118.970238,236.258713 119.973495,237.652802 
	C119.999924,238.001160 119.977219,238.028839 119.977219,238.028839 
z"/>
<path fill="#B7C7F7" opacity="1.000000" stroke="none" 
	d="
M130.013367,247.989746 
	C130.147079,248.136063 130.268066,248.292862 130.389053,248.449646 
	C130.293869,248.403015 130.198685,248.356369 130.041626,248.167740 
	C129.979752,248.025757 130.000626,248.000244 130.013367,247.989746 
z"/>
<path fill="#B7C7F7" opacity="1.000000" stroke="none" 
	d="
M120.013626,237.989746 
	C120.145584,238.136993 120.263832,238.295670 120.382080,238.454346 
	C120.287704,238.407059 120.193314,238.359772 120.038071,238.170670 
	C119.977219,238.028839 119.999924,238.001160 120.013626,237.989746 
z"/>
<path fill="#5E8EF1" opacity="1.000000" stroke="none" 
	d="
M155.180038,106.073624 
	C156.460968,105.341911 158.344070,104.302490 158.758728,104.720337 
	C159.800980,105.770599 160.286102,107.450996 160.686005,108.960495 
	C160.734207,109.142464 158.360413,110.458206 158.005875,110.164825 
	C156.822052,109.185211 156.045975,107.712891 155.180038,106.073624 
z"/>
<path fill="#5E8EF1" opacity="1.000000" stroke="none" 
	d="
M157.221008,128.708084 
	C156.582031,126.932205 156.202850,125.402748 155.823654,123.873299 
	C156.688797,123.904701 158.008408,123.596008 158.334045,124.031143 
	C159.319366,125.347816 159.919266,126.952919 160.669342,128.445633 
	C159.606491,128.615250 158.543640,128.784882 157.221008,128.708084 
z"/>
<path fill="#E4EAFC" opacity="1.000000" stroke="none" 
	d="
M308.393921,184.956268 
	C307.308380,179.934982 306.641724,174.925217 305.954620,169.502960 
	C307.660156,166.419144 309.583740,163.849945 311.037109,161.037750 
	C311.894867,159.378082 312.007843,157.333481 312.739990,155.204437 
	C313.024200,154.946899 313.474426,155.000626 313.700836,154.997223 
	C313.949738,156.063004 313.972229,157.132172 313.761414,158.760162 
	C313.747406,159.885147 313.966705,160.451294 314.186035,161.017441 
	C316.251007,168.266479 319.485901,170.368393 329.519012,171.174103 
	C330.654999,175.028900 331.350433,178.403580 332.045868,181.778275 
	C325.030151,188.148849 316.970734,186.916962 308.393921,184.956268 
z"/>
<path fill="#EBEFFD" opacity="1.000000" stroke="none" 
	d="
M322.907043,218.015045 
	C323.242584,224.453476 323.560608,230.892899 323.918640,237.330078 
	C324.269165,243.632996 324.660492,249.933670 325.033936,256.235321 
	C324.569855,256.293915 324.105743,256.352509 323.641663,256.411102 
	C323.119110,253.808838 322.802673,251.142487 322.018829,248.621460 
	C321.149384,245.825165 320.426117,242.668106 318.607635,240.556534 
	C315.919281,237.434906 315.726440,234.619080 317.095215,231.037537 
	C318.950226,226.183472 320.484283,221.206741 322.509094,216.559296 
	C322.877075,217.228989 322.892059,217.622009 322.907043,218.015045 
z"/>
<path fill="#C3D0F9" opacity="1.000000" stroke="none" 
	d="
M314.878143,284.098022 
	C316.427887,284.297821 318.003418,284.752228 319.517426,284.598999 
	C320.384491,284.511261 321.151550,283.435822 321.951477,282.430542 
	C323.697510,281.704071 325.455719,281.352142 327.859070,281.225067 
	C328.374878,283.386292 328.245605,285.322662 327.790588,287.490845 
	C322.761292,288.278534 318.092468,288.713745 314.878143,284.098022 
z"/>
<path fill="#A3B8F5" opacity="1.000000" stroke="none" 
	d="
M323.285400,217.946075 
	C322.892059,217.622009 322.877075,217.228989 322.858368,216.544891 
	C321.562592,207.702286 324.602692,203.877975 333.886780,202.746506 
	C333.462250,203.443558 333.267059,204.240479 332.807007,204.446808 
	C327.377289,206.881897 325.154144,211.312531 324.730560,216.965973 
	C324.705963,217.294495 324.034271,217.574524 323.285400,217.946075 
z"/>
<path fill="#F5F7FE" opacity="1.000000" stroke="none" 
	d="
M332.328491,181.949799 
	C331.350433,178.403580 330.654999,175.028900 329.929779,171.197418 
	C330.715698,170.548630 331.531433,170.356644 332.672211,170.227112 
	C333.716553,172.606323 334.606079,174.887741 335.096649,177.251953 
	C335.437256,178.893311 335.228882,180.648590 335.134827,182.708252 
	C334.206299,182.749451 333.408691,182.435394 332.328491,181.949799 
z"/>
<path fill="#B7C7F7" opacity="1.000000" stroke="none" 
	d="
M328.116302,287.259064 
	C328.245605,285.322662 328.374878,283.386292 328.244690,281.214661 
	C327.841431,278.632385 328.098511,276.618073 331.674988,277.036316 
	C331.841553,279.776001 331.602844,282.502380 330.941406,285.751434 
	C330.268555,286.605408 330.018372,286.936646 329.492493,287.249207 
	C328.849915,287.240051 328.483124,287.249542 328.116302,287.259064 
z"/>
<path fill="#FDFDFF" opacity="1.000000" stroke="none" 
	d="
M272.938171,172.639343 
	C272.958466,184.097549 272.791962,195.208206 272.971924,206.313248 
	C273.042297,210.655838 271.675751,213.459274 267.613312,215.352173 
	C264.237183,216.925278 261.223999,219.277374 257.673065,221.548264 
	C255.674835,220.831085 254.053604,219.850067 252.518890,218.921402 
	C252.349899,221.826981 252.201294,224.382217 252.052673,226.937439 
	C249.553604,227.481659 246.719086,227.444489 244.608597,228.662216 
	C227.908859,238.297409 211.361938,248.197067 194.724213,257.940582 
	C192.621780,259.171844 190.265259,259.969238 187.266235,261.306702 
	C187.139648,258.906036 186.970215,257.186432 186.969772,255.466766 
	C186.957703,207.509369 187.019226,159.551804 186.879578,111.594833 
	C186.865265,106.679321 188.389801,103.775955 192.796906,101.271637 
	C216.924393,87.561325 240.847336,73.491310 264.869720,59.595303 
	C266.972504,58.378933 269.285980,57.526852 272.898010,55.861866 
	C272.898010,89.648605 272.898010,122.303169 272.881531,155.412277 
	C272.085876,154.205597 270.961975,152.610519 270.626862,150.864090 
	C270.307220,149.198090 270.809723,147.374374 271.027710,144.664200 
	C269.086578,146.034897 267.984344,146.813217 266.210358,148.065918 
	C265.077789,145.854156 264.000366,143.750137 262.945496,140.836700 
	C262.967987,137.158463 262.967987,134.289658 262.967987,130.689713 
	C257.127228,133.854385 252.287033,136.346008 247.572098,139.055542 
	C231.853516,148.088547 216.212967,157.257690 200.471985,166.251205 
	C194.492661,169.667480 193.351974,172.671539 196.141891,179.726791 
	C201.345230,176.745621 206.521011,173.772751 211.703827,170.812210 
	C227.437485,161.824814 243.173859,152.842194 258.909180,143.857727 
	C259.114197,145.199219 259.962311,146.954422 259.411957,147.809952 
	C257.139465,151.342346 259.057892,153.277679 261.210266,155.931107 
	C265.423126,161.124649 269.031403,166.808594 272.938171,172.639343 
M241.556763,118.727356 
	C245.253586,113.010902 247.384598,106.838173 246.985962,99.941963 
	C246.433685,90.388191 239.652588,86.357948 231.066544,90.467590 
	C219.489761,96.008713 210.627640,112.429367 213.271347,124.980453 
	C213.894150,127.937241 217.551773,130.254776 220.684097,132.961807 
	C230.594025,133.010513 235.994858,126.373871 241.556763,118.727356 
M225.585007,197.097778 
	C236.494553,190.756317 247.439957,184.475449 258.298340,178.047546 
	C263.632202,174.890015 264.448578,171.700897 261.924469,165.347046 
	C261.314667,165.564819 260.651764,165.695755 260.097198,166.014862 
	C240.221649,177.451721 220.344421,188.885773 200.496490,200.370453 
	C194.442307,203.873611 193.763840,205.942520 195.967651,213.980896 
	C205.706100,208.423798 215.322479,202.936340 225.585007,197.097778 
M224.670044,219.173782 
	C230.467957,215.934570 236.244095,212.655594 242.069061,209.465805 
	C250.019073,205.112381 251.918900,200.708221 248.528229,192.276138 
	C239.535995,197.784958 230.369507,202.757614 222.093338,208.925003 
	C220.037033,210.457352 220.860947,215.854736 220.360962,219.475555 
	C221.589325,219.506699 222.817673,219.537842 224.670044,219.173782 
M219.559448,146.871384 
	C220.062454,145.089539 220.565460,143.307693 221.068466,141.525833 
	C216.428223,142.721436 213.067535,144.387955 209.800232,146.220917 
	C205.460709,148.655411 201.037003,150.999191 196.999405,153.873520 
	C195.903320,154.653809 196.067307,157.204163 195.652969,158.942123 
	C196.983917,158.831802 198.542999,159.133591 199.608505,158.543777 
	C206.131119,154.933090 212.541901,151.120331 219.559448,146.871384 
M219.549286,180.885193 
	C219.812088,179.421722 220.074890,177.958252 220.337692,176.494781 
	C218.938034,176.641357 217.316727,176.380981 216.175705,177.002426 
	C210.079956,180.322479 204.084656,183.829758 198.106949,187.360886 
	C197.154953,187.923233 196.173492,188.804810 195.745010,189.776627 
	C195.346542,190.680405 195.668121,191.901657 195.672684,192.983139 
	C196.676208,192.942978 197.865234,193.241531 198.654160,192.809494 
	C205.469406,189.077225 212.212631,185.213379 219.549286,180.885193 
z"/>
<path fill="#121212" opacity="1.000000" stroke="none" 
	d="
M252.011536,227.193115 
	C252.201294,224.382217 252.349899,221.826981 252.518890,218.921402 
	C254.053604,219.850067 255.674835,220.831085 257.636597,221.896561 
	C259.681732,222.927841 261.386322,223.874680 263.479828,225.037537 
	C262.428314,225.667786 261.784821,226.053482 261.094971,226.731201 
	C258.943604,228.449310 256.838562,229.875427 254.659760,231.351532 
	C254.149963,230.546280 253.412949,229.382095 252.356323,228.090149 
	C252.014618,227.791183 251.992523,227.619980 252.011536,227.193115 
z"/>
<path fill="#B7C7F7" opacity="1.000000" stroke="none" 
	d="
M314.365265,160.841705 
	C313.966705,160.451294 313.747406,159.885147 313.753082,159.161163 
	C314.166901,159.557556 314.355682,160.111771 314.365265,160.841705 
z"/>
<path fill="#A4B9F6" opacity="1.000000" stroke="none" 
	d="
M258.934814,143.502029 
	C243.173859,152.842194 227.437485,161.824814 211.703827,170.812210 
	C206.521011,173.772751 201.345230,176.745621 196.141891,179.726791 
	C193.351974,172.671539 194.492661,169.667480 200.471985,166.251205 
	C216.212967,157.257690 231.853516,148.088547 247.572098,139.055542 
	C252.287033,136.346008 257.127228,133.854385 262.967987,130.689713 
	C262.967987,134.289658 262.967987,137.158463 262.903168,140.463486 
	C261.815094,140.931534 260.791870,140.963364 259.376709,140.759552 
	C258.868622,140.247925 258.752441,139.971909 258.636261,139.695892 
	C258.512085,139.781815 258.387939,139.867752 258.263794,139.953674 
	C258.510773,140.301361 258.757721,140.649048 259.004669,140.996735 
	C258.989929,141.713272 258.975220,142.429810 258.934814,143.502029 
z"/>
<path fill="#B7C7F7" opacity="1.000000" stroke="none" 
	d="
M70.078796,281.573425 
	C70.201347,280.327942 70.716362,279.077759 71.070999,277.783600 
	C72.412201,272.889374 73.720413,267.985840 74.998970,263.074829 
	C75.409355,261.498505 75.689995,259.888458 76.255905,257.234222 
	C79.224960,263.824341 76.552254,273.411194 70.078796,281.573425 
z"/>
<path fill="#B7C7F7" opacity="1.000000" stroke="none" 
	d="
M62.020767,281.014526 
	C61.506130,281.986511 60.991493,282.958496 60.476856,283.930511 
	C60.059044,283.629761 59.641228,283.329010 59.223412,283.028290 
	C59.924129,282.368073 60.624851,281.707855 61.661537,281.022522 
	C61.997505,280.997437 62.020767,281.014526 62.020767,281.014526 
z"/>
<path fill="#B7C7F7" opacity="1.000000" stroke="none" 
	d="
M61.987061,280.987000 
	C62.109962,280.545349 62.243309,280.114166 62.376659,279.682983 
	C62.394760,280.041840 62.412861,280.400696 62.225868,280.887024 
	C62.020767,281.014526 61.997505,280.997437 61.987061,280.987000 
z"/>
<path fill="#6A93F1" opacity="1.000000" stroke="none" 
	d="
M327.790588,287.490845 
	C328.483124,287.249542 328.849915,287.240051 329.580719,287.566956 
	C330.109406,288.314270 330.274139,288.725098 330.438843,289.135956 
	C330.342743,293.187805 328.541962,294.409393 324.642212,292.979156 
	C320.914520,291.611938 316.983795,290.786804 313.290161,289.344635 
	C311.987762,288.836121 311.122803,287.207245 310.058105,286.089905 
	C311.410889,285.416260 312.763702,284.742584 314.497314,284.083466 
	C318.092468,288.713745 322.761292,288.278534 327.790588,287.490845 
z"/>
<path fill="#C3D0F9" opacity="1.000000" stroke="none" 
	d="
M330.726562,289.045227 
	C330.274139,288.725098 330.109406,288.314270 329.856445,287.585663 
	C330.018372,286.936646 330.268555,286.605408 330.792511,286.124084 
	C334.214233,287.022766 332.532623,287.987213 330.726562,289.045227 
z"/>
<path fill="#B7C7F7" opacity="1.000000" stroke="none" 
	d="
M276.335144,203.404938 
	C277.500793,201.089813 278.519501,199.113037 279.538239,197.136276 
	C280.011200,197.372742 280.484131,197.609207 280.957092,197.845688 
	C279.385010,201.395416 277.812897,204.945145 276.240814,208.494873 
	C275.861237,208.371185 275.481659,208.247498 275.102081,208.123810 
	C275.464111,206.663635 275.826141,205.203461 276.335144,203.404938 
z"/>
<path fill="#CAD6F9" opacity="1.000000" stroke="none" 
	d="
M275.104736,189.251556 
	C276.216309,189.205444 277.266052,189.559341 278.650085,189.946899 
	C278.170044,191.304138 277.355682,192.627747 276.541290,193.951340 
	C276.144806,193.831055 275.748352,193.710770 275.351868,193.590485 
	C275.248871,192.277512 275.145844,190.964523 275.104736,189.251556 
z"/>
<path fill="#C3D0F9" opacity="1.000000" stroke="none" 
	d="
M269.999390,222.000610 
	C269.289825,221.512604 268.580872,221.023972 267.871887,220.535355 
	C268.113312,220.243942 268.354736,219.952530 268.596161,219.661118 
	C269.044281,220.232346 269.492401,220.803574 269.970886,221.686798 
	C270.001221,221.998779 270.000000,222.000000 269.999390,222.000610 
z"/>
<path fill="#B7C7F7" opacity="1.000000" stroke="none" 
	d="
M281.526459,195.400375 
	C281.644379,194.944183 281.933289,194.667358 282.222198,194.390533 
	C282.336365,194.510208 282.556458,194.727753 282.549377,194.735413 
	C282.278320,195.028824 281.986511,195.303009 281.526459,195.400375 
z"/>
<path fill="#A5BAF6" opacity="1.000000" stroke="none" 
	d="
M225.261932,197.273331 
	C215.322479,202.936340 205.706100,208.423798 195.967651,213.980896 
	C193.763840,205.942520 194.442307,203.873611 200.496490,200.370453 
	C220.344421,188.885773 240.221649,177.451721 260.097198,166.014862 
	C260.651764,165.695755 261.314667,165.564819 261.924469,165.347046 
	C264.448578,171.700897 263.632202,174.890015 258.298340,178.047546 
	C247.439957,184.475449 236.494553,190.756317 225.261932,197.273331 
z"/>
<path fill="#A4B9F6" opacity="1.000000" stroke="none" 
	d="
M219.813293,132.866394 
	C217.551773,130.254776 213.894150,127.937241 213.271347,124.980453 
	C210.627640,112.429367 219.489761,96.008713 231.066544,90.467590 
	C239.652588,86.357948 246.433685,90.388191 246.985962,99.941963 
	C247.384598,106.838173 245.253586,113.010902 241.036850,118.710556 
	C237.855133,111.887390 236.158386,111.411079 229.972351,115.334396 
	C223.498550,119.440216 219.559692,124.912308 219.813293,132.866394 
M234.827927,103.507515 
	C233.704315,102.365875 232.580704,101.224236 231.457108,100.082596 
	C229.385513,102.314056 226.891464,104.304474 225.422165,106.879593 
	C224.697372,108.149864 225.701019,110.559822 226.335922,112.303596 
	C226.443634,112.599449 229.236969,112.604851 229.774689,111.932640 
	C231.667130,109.566818 233.117340,106.847275 234.827927,103.507515 
z"/>
<path fill="#DBE2FA" opacity="1.000000" stroke="none" 
	d="
M224.358032,219.371399 
	C222.817673,219.537842 221.589325,219.506699 220.360962,219.475555 
	C220.860947,215.854736 220.037033,210.457352 222.093338,208.925003 
	C230.369507,202.757614 239.535995,197.784958 248.528229,192.276138 
	C251.918900,200.708221 250.019073,205.112381 242.069061,209.465805 
	C236.244095,212.655594 230.467957,215.934570 224.358032,219.371399 
z"/>
<path fill="#E4EAFC" opacity="1.000000" stroke="none" 
	d="
M220.248688,132.914093 
	C219.559692,124.912308 223.498550,119.440216 229.972351,115.334396 
	C236.158386,111.411079 237.855133,111.887390 240.783676,118.959518 
	C235.994858,126.373871 230.594025,133.010513 220.248688,132.914093 
z"/>
<path fill="#DBE2FA" opacity="1.000000" stroke="none" 
	d="
M219.274689,147.123138 
	C212.541901,151.120331 206.131119,154.933090 199.608505,158.543777 
	C198.542999,159.133591 196.983917,158.831802 195.652954,158.942123 
	C196.067307,157.204163 195.903320,154.653809 196.999405,153.873520 
	C201.037003,150.999191 205.460709,148.655411 209.800232,146.220917 
	C213.067535,144.387955 216.428223,142.721436 221.068466,141.525833 
	C220.565460,143.307693 220.062454,145.089539 219.274689,147.123138 
z"/>
<path fill="#DBE2FA" opacity="1.000000" stroke="none" 
	d="
M219.263306,181.136963 
	C212.212631,185.213379 205.469406,189.077225 198.654160,192.809494 
	C197.865234,193.241531 196.676208,192.942978 195.672684,192.983139 
	C195.668121,191.901657 195.346542,190.680405 195.745010,189.776627 
	C196.173492,188.804810 197.154953,187.923233 198.106949,187.360886 
	C204.084656,183.829758 210.079956,180.322479 216.175705,177.002426 
	C217.316727,176.380981 218.938034,176.641357 220.337692,176.494781 
	C220.074890,177.958252 219.812088,179.421722 219.263306,181.136963 
z"/>
<path fill="#CAD6F9" opacity="1.000000" stroke="none" 
	d="
M259.002319,140.998383 
	C258.757721,140.649048 258.510773,140.301361 258.263794,139.953674 
	C258.387939,139.867752 258.512085,139.781815 258.636261,139.695892 
	C258.752441,139.971909 258.868622,140.247925 258.989960,140.764587 
	C258.995117,141.005234 259.000000,141.000015 259.002319,140.998383 
z"/>
<path fill="#E4EAFC" opacity="1.000000" stroke="none" 
	d="
M234.781631,103.884727 
	C233.117340,106.847275 231.667130,109.566818 229.774689,111.932640 
	C229.236969,112.604851 226.443634,112.599449 226.335922,112.303596 
	C225.701019,110.559822 224.697372,108.149864 225.422165,106.879593 
	C226.891464,104.304474 229.385513,102.314056 231.457108,100.082596 
	C232.580704,101.224236 233.704315,102.365875 234.781631,103.884727 
z"/>
</svg>